<svg xmlns:xlink="http://www.w3.org/1999/xlink" version="1.1" class="highcharts-root" style="font-family:&quot;lucida grande&quot;, &quot;lucida sans unicode&quot;, arial, helvetica, sans-serif;font-size:12px;" xmlns="http://www.w3.org/2000/svg" width="1200" height="800"><desc>Created with Highcharts 5.0.6</desc><defs><clipPath id="highcharts-ls0dkz3-307"><rect x="0" y="0" width="659" height="932" fill="none"></rect></clipPath></defs><rect fill="#ffffff" class="highcharts-background" x="0" y="0" width="1200" height="800" rx="0" ry="0"></rect><rect fill="none" class="highcharts-plot-background" x="258" y="47" width="932" height="659"></rect><g class="highcharts-grid highcharts-xaxis-grid "><path fill="none" class="highcharts-grid-line" d="M 258 74.5 L 1190 74.5" opacity="1"></path><path fill="none" class="highcharts-grid-line" d="M 258 102.5 L 1190 102.5" opacity="1"></path><path fill="none" class="highcharts-grid-line" d="M 258 129.5 L 1190 129.5" opacity="1"></path><path fill="none" class="highcharts-grid-line" d="M 258 157.5 L 1190 157.5" opacity="1"></path><path fill="none" class="highcharts-grid-line" d="M 258 184.5 L 1190 184.5" opacity="1"></path><path fill="none" class="highcharts-grid-line" d="M 258 212.5 L 1190 212.5" opacity="1"></path><path fill="none" class="highcharts-grid-line" d="M 258 239.5 L 1190 239.5" opacity="1"></path><path fill="none" class="highcharts-grid-line" d="M 258 267.5 L 1190 267.5" opacity="1"></path><path fill="none" class="highcharts-grid-line" d="M 258 294.5 L 1190 294.5" opacity="1"></path><path fill="none" class="highcharts-grid-line" d="M 258 322.5 L 1190 322.5" opacity="1"></path><path fill="none" class="highcharts-grid-line" d="M 258 349.5 L 1190 349.5" opacity="1"></path><path fill="none" class="highcharts-grid-line" d="M 258 377.5 L 1190 377.5" opacity="1"></path><path fill="none" class="highcharts-grid-line" d="M 258 404.5 L 1190 404.5" opacity="1"></path><path fill="none" class="highcharts-grid-line" d="M 258 431.5 L 1190 431.5" opacity="1"></path><path fill="none" class="highcharts-grid-line" d="M 258 459.5 L 1190 459.5" opacity="1"></path><path fill="none" class="highcharts-grid-line" d="M 258 486.5 L 1190 486.5" opacity="1"></path><path fill="none" class="highcharts-grid-line" d="M 258 514.5 L 1190 514.5" opacity="1"></path><path fill="none" class="highcharts-grid-line" d="M 258 541.5 L 1190 541.5" opacity="1"></path><path fill="none" class="highcharts-grid-line" d="M 258 569.5 L 1190 569.5" opacity="1"></path><path fill="none" class="highcharts-grid-line" d="M 258 596.5 L 1190 596.5" opacity="1"></path><path fill="none" class="highcharts-grid-line" d="M 258 624.5 L 1190 624.5" opacity="1"></path><path fill="none" class="highcharts-grid-line" d="M 258 651.5 L 1190 651.5" opacity="1"></path><path fill="none" class="highcharts-grid-line" d="M 258 679.5 L 1190 679.5" opacity="1"></path><path fill="none" class="highcharts-grid-line" d="M 258 706.5 L 1190 706.5" opacity="1"></path><path fill="none" class="highcharts-grid-line" d="M 258 47.5 L 1190 47.5" opacity="1"></path></g><g class="highcharts-grid highcharts-yaxis-grid "><path fill="none" stroke="#e6e6e6" stroke-width="1" class="highcharts-grid-line" d="M 257.5 47 L 257.5 706" opacity="1"></path><path fill="none" stroke="#e6e6e6" stroke-width="1" class="highcharts-grid-line" d="M 350.5 47 L 350.5 706" opacity="1"></path><path fill="none" stroke="#e6e6e6" stroke-width="1" class="highcharts-grid-line" d="M 443.5 47 L 443.5 706" opacity="1"></path><path fill="none" stroke="#e6e6e6" stroke-width="1" class="highcharts-grid-line" d="M 537.5 47 L 537.5 706" opacity="1"></path><path fill="none" stroke="#e6e6e6" stroke-width="1" class="highcharts-grid-line" d="M 630.5 47 L 630.5 706" opacity="1"></path><path fill="none" stroke="#e6e6e6" stroke-width="1" class="highcharts-grid-line" d="M 723.5 47 L 723.5 706" opacity="1"></path><path fill="none" stroke="#e6e6e6" stroke-width="1" class="highcharts-grid-line" d="M 816.5 47 L 816.5 706" opacity="1"></path><path fill="none" stroke="#e6e6e6" stroke-width="1" class="highcharts-grid-line" d="M 909.5 47 L 909.5 706" opacity="1"></path><path fill="none" stroke="#e6e6e6" stroke-width="1" class="highcharts-grid-line" d="M 1003.5 47 L 1003.5 706" opacity="1"></path><path fill="none" stroke="#e6e6e6" stroke-width="1" class="highcharts-grid-line" d="M 1096.5 47 L 1096.5 706" opacity="1"></path><path fill="none" stroke="#e6e6e6" stroke-width="1" class="highcharts-grid-line" d="M 1190.5 47 L 1190.5 706" opacity="1"></path></g><rect fill="none" class="highcharts-plot-border" x="258" y="47" width="932" height="659"></rect><g class="highcharts-axis highcharts-xaxis "><path fill="none" class="highcharts-tick" stroke="#ccd6eb" stroke-width="1" d="M 258 74.5 L 248 74.5" opacity="1"></path><path fill="none" class="highcharts-tick" stroke="#ccd6eb" stroke-width="1" d="M 258 102.5 L 248 102.5" opacity="1"></path><path fill="none" class="highcharts-tick" stroke="#ccd6eb" stroke-width="1" d="M 258 129.5 L 248 129.5" opacity="1"></path><path fill="none" class="highcharts-tick" stroke="#ccd6eb" stroke-width="1" d="M 258 157.5 L 248 157.5" opacity="1"></path><path fill="none" class="highcharts-tick" stroke="#ccd6eb" stroke-width="1" d="M 258 184.5 L 248 184.5" opacity="1"></path><path fill="none" class="highcharts-tick" stroke="#ccd6eb" stroke-width="1" d="M 258 212.5 L 248 212.5" opacity="1"></path><path fill="none" class="highcharts-tick" stroke="#ccd6eb" stroke-width="1" d="M 258 239.5 L 248 239.5" opacity="1"></path><path fill="none" class="highcharts-tick" stroke="#ccd6eb" stroke-width="1" d="M 258 267.5 L 248 267.5" opacity="1"></path><path fill="none" class="highcharts-tick" stroke="#ccd6eb" stroke-width="1" d="M 258 294.5 L 248 294.5" opacity="1"></path><path fill="none" class="highcharts-tick" stroke="#ccd6eb" stroke-width="1" d="M 258 322.5 L 248 322.5" opacity="1"></path><path fill="none" class="highcharts-tick" stroke="#ccd6eb" stroke-width="1" d="M 258 349.5 L 248 349.5" opacity="1"></path><path fill="none" class="highcharts-tick" stroke="#ccd6eb" stroke-width="1" d="M 258 377.5 L 248 377.5" opacity="1"></path><path fill="none" class="highcharts-tick" stroke="#ccd6eb" stroke-width="1" d="M 258 404.5 L 248 404.5" opacity="1"></path><path fill="none" class="highcharts-tick" stroke="#ccd6eb" stroke-width="1" d="M 258 431.5 L 248 431.5" opacity="1"></path><path fill="none" class="highcharts-tick" stroke="#ccd6eb" stroke-width="1" d="M 258 459.5 L 248 459.5" opacity="1"></path><path fill="none" class="highcharts-tick" stroke="#ccd6eb" stroke-width="1" d="M 258 486.5 L 248 486.5" opacity="1"></path><path fill="none" class="highcharts-tick" stroke="#ccd6eb" stroke-width="1" d="M 258 514.5 L 248 514.5" opacity="1"></path><path fill="none" class="highcharts-tick" stroke="#ccd6eb" stroke-width="1" d="M 258 541.5 L 248 541.5" opacity="1"></path><path fill="none" class="highcharts-tick" stroke="#ccd6eb" stroke-width="1" d="M 258 569.5 L 248 569.5" opacity="1"></path><path fill="none" class="highcharts-tick" stroke="#ccd6eb" stroke-width="1" d="M 258 596.5 L 248 596.5" opacity="1"></path><path fill="none" class="highcharts-tick" stroke="#ccd6eb" stroke-width="1" d="M 258 624.5 L 248 624.5" opacity="1"></path><path fill="none" class="highcharts-tick" stroke="#ccd6eb" stroke-width="1" d="M 258 651.5 L 248 651.5" opacity="1"></path><path fill="none" class="highcharts-tick" stroke="#ccd6eb" stroke-width="1" d="M 258 679.5 L 248 679.5" opacity="1"></path><path fill="none" class="highcharts-tick" stroke="#ccd6eb" stroke-width="1" d="M 258 706.5 L 248 706.5" opacity="1"></path><path fill="none" class="highcharts-tick" stroke="#ccd6eb" stroke-width="1" d="M 258 46.5 L 248 46.5" opacity="1"></path><path fill="none" class="highcharts-axis-line" stroke="#ccd6eb" stroke-width="1" d="M 257.5 47 L 257.5 706"></path></g><g class="highcharts-axis highcharts-yaxis "><text x="724" text-anchor="middle" transform="translate(0,0)" class="highcharts-axis-title" style="color:#666666;fill:#666666;" y="744.3999996185303">Percentages</text><path fill="none" class="highcharts-axis-line" d="M 258 706 L 1190 706"></path></g><g class="highcharts-series-group"><g class="highcharts-series highcharts-series-0 highcharts-bar-series highcharts-color-0 " transform="translate(1190,706) rotate(90) scale(-1,1) scale(1 1)" width="932" height="659" clip-path="url(#highcharts-ls0dkz3-307)"><rect x="635" y="244" width="22" height="689" fill="#7cb5ec" class="highcharts-point highcharts-color-0"></rect><rect x="607" y="271" width="22" height="662" fill="#7cb5ec" class="highcharts-point highcharts-color-0"></rect><rect x="580" y="244" width="22" height="689" fill="#7cb5ec" class="highcharts-point highcharts-color-0"></rect><rect x="552" y="260" width="22" height="673" fill="#7cb5ec" class="highcharts-point highcharts-color-0"></rect><rect x="525" y="224" width="22" height="709" fill="#7cb5ec" class="highcharts-point highcharts-color-0"></rect><rect x="497" y="230" width="22" height="703" fill="#7cb5ec" class="highcharts-point highcharts-color-0"></rect><rect x="470" y="236" width="22" height="697" fill="#7cb5ec" class="highcharts-point highcharts-color-0"></rect><rect x="443" y="243" width="22" height="690" fill="#7cb5ec" class="highcharts-point highcharts-color-0"></rect><rect x="415" y="247" width="22" height="686" fill="#7cb5ec" class="highcharts-point highcharts-color-0"></rect><rect x="388" y="234" width="22" height="699" fill="#7cb5ec" class="highcharts-point highcharts-color-0"></rect><rect x="360" y="249" width="22" height="684" fill="#7cb5ec" class="highcharts-point highcharts-color-0"></rect><rect x="333" y="258" width="22" height="675" fill="#7cb5ec" class="highcharts-point highcharts-color-0"></rect><rect x="305" y="244" width="22" height="689" fill="#7cb5ec" class="highcharts-point highcharts-color-0"></rect><rect x="278" y="246" width="22" height="687" fill="#7cb5ec" class="highcharts-point highcharts-color-0"></rect><rect x="250" y="289" width="22" height="644" fill="#7cb5ec" class="highcharts-point highcharts-color-0"></rect><rect x="223" y="277" width="22" height="656" fill="#7cb5ec" class="highcharts-point highcharts-color-0"></rect><rect x="195" y="230" width="22" height="703" fill="#7cb5ec" class="highcharts-point highcharts-color-0"></rect><rect x="168" y="245" width="22" height="688" fill="#7cb5ec" class="highcharts-point highcharts-color-0"></rect><rect x="140" y="238" width="22" height="695" fill="#7cb5ec" class="highcharts-point highcharts-color-0"></rect><rect x="113" y="244" width="22" height="689" fill="#7cb5ec" class="highcharts-point highcharts-color-0"></rect><rect x="86" y="254" width="22" height="679" fill="#7cb5ec" class="highcharts-point highcharts-color-0"></rect><rect x="58" y="241" width="22" height="692" fill="#7cb5ec" class="highcharts-point highcharts-color-0"></rect><rect x="31" y="263" width="22" height="670" fill="#7cb5ec" class="highcharts-point highcharts-color-0"></rect><rect x="3" y="255" width="22" height="678" fill="#7cb5ec" class="highcharts-point highcharts-color-0"></rect></g><g class="highcharts-markers highcharts-series-0 highcharts-bar-series highcharts-color-0 " transform="translate(1190,706) rotate(90) scale(-1,1) scale(1 1)" width="932" height="659" clip-path="none"></g><g class="highcharts-series highcharts-series-1 highcharts-bar-series highcharts-color-1 " transform="translate(1190,706) rotate(90) scale(-1,1) scale(1 1)" width="932" height="659" clip-path="url(#highcharts-ls0dkz3-307)"><rect x="635" y="85" width="22" height="159" fill="#434348" class="highcharts-point highcharts-color-1"></rect><rect x="607" y="89" width="22" height="182" fill="#434348" class="highcharts-point highcharts-color-1"></rect><rect x="580" y="77" width="22" height="167" fill="#434348" class="highcharts-point highcharts-color-1"></rect><rect x="552" y="78" width="22" height="182" fill="#434348" class="highcharts-point highcharts-color-1"></rect><rect x="525" y="77" width="22" height="147" fill="#434348" class="highcharts-point highcharts-color-1"></rect><rect x="497" y="79" width="22" height="151" fill="#434348" class="highcharts-point highcharts-color-1"></rect><rect x="470" y="71" width="22" height="165" fill="#434348" class="highcharts-point highcharts-color-1"></rect><rect x="443" y="76" width="22" height="167" fill="#434348" class="highcharts-point highcharts-color-1"></rect><rect x="415" y="89" width="22" height="158" fill="#434348" class="highcharts-point highcharts-color-1"></rect><rect x="388" y="76" width="22" height="158" fill="#434348" class="highcharts-point highcharts-color-1"></rect><rect x="360" y="79" width="22" height="170" fill="#434348" class="highcharts-point highcharts-color-1"></rect><rect x="333" y="80" width="22" height="178" fill="#434348" class="highcharts-point highcharts-color-1"></rect><rect x="305" y="75" width="22" height="169" fill="#434348" class="highcharts-point highcharts-color-1"></rect><rect x="278" y="68" width="22" height="178" fill="#434348" class="highcharts-point highcharts-color-1"></rect><rect x="250" y="76" width="22" height="213" fill="#434348" class="highcharts-point highcharts-color-1"></rect><rect x="223" y="79" width="22" height="198" fill="#434348" class="highcharts-point highcharts-color-1"></rect><rect x="195" y="63" width="22" height="167" fill="#434348" class="highcharts-point highcharts-color-1"></rect><rect x="168" y="74" width="22" height="171" fill="#434348" class="highcharts-point highcharts-color-1"></rect><rect x="140" y="65" width="22" height="173" fill="#434348" class="highcharts-point highcharts-color-1"></rect><rect x="113" y="70" width="22" height="174" fill="#434348" class="highcharts-point highcharts-color-1"></rect><rect x="86" y="78" width="22" height="176" fill="#434348" class="highcharts-point highcharts-color-1"></rect><rect x="58" y="71" width="22" height="170" fill="#434348" class="highcharts-point highcharts-color-1"></rect><rect x="31" y="74" width="22" height="189" fill="#434348" class="highcharts-point highcharts-color-1"></rect><rect x="3" y="75" width="22" height="180" fill="#434348" class="highcharts-point highcharts-color-1"></rect></g><g class="highcharts-markers highcharts-series-1 highcharts-bar-series highcharts-color-1 " transform="translate(1190,706) rotate(90) scale(-1,1) scale(1 1)" width="932" height="659" clip-path="none"></g><g class="highcharts-series highcharts-series-2 highcharts-bar-series highcharts-color-2 " transform="translate(1190,706) rotate(90) scale(-1,1) scale(1 1)" width="932" height="659" clip-path="url(#highcharts-ls0dkz3-307)"><rect x="635" y="43" width="22" height="42" fill="#90ed7d" class="highcharts-point highcharts-color-2"></rect><rect x="607" y="39" width="22" height="50" fill="#90ed7d" class="highcharts-point highcharts-color-2"></rect><rect x="580" y="42" width="22" height="35" fill="#90ed7d" class="highcharts-point highcharts-color-2"></rect><rect x="552" y="41" width="22" height="37" fill="#90ed7d" class="highcharts-point highcharts-color-2"></rect><rect x="525" y="40" width="22" height="37" fill="#90ed7d" class="highcharts-point highcharts-color-2"></rect><rect x="497" y="41" width="22" height="38" fill="#90ed7d" class="highcharts-point highcharts-color-2"></rect><rect x="470" y="43" width="22" height="28" fill="#90ed7d" class="highcharts-point highcharts-color-2"></rect><rect x="443" y="40" width="22" height="36" fill="#90ed7d" class="highcharts-point highcharts-color-2"></rect><rect x="415" y="42" width="22" height="47" fill="#90ed7d" class="highcharts-point highcharts-color-2"></rect><rect x="388" y="41" width="22" height="35" fill="#90ed7d" class="highcharts-point highcharts-color-2"></rect><rect x="360" y="42" width="22" height="37" fill="#90ed7d" class="highcharts-point highcharts-color-2"></rect><rect x="333" y="41" width="22" height="39" fill="#90ed7d" class="highcharts-point highcharts-color-2"></rect><rect x="305" y="44" width="22" height="31" fill="#90ed7d" class="highcharts-point highcharts-color-2"></rect><rect x="278" y="40" width="22" height="28" fill="#90ed7d" class="highcharts-point highcharts-color-2"></rect><rect x="250" y="44" width="22" height="32" fill="#90ed7d" class="highcharts-point highcharts-color-2"></rect><rect x="223" y="43" width="22" height="36" fill="#90ed7d" class="highcharts-point highcharts-color-2"></rect><rect x="195" y="37" width="22" height="26" fill="#90ed7d" class="highcharts-point highcharts-color-2"></rect><rect x="168" y="42" width="22" height="32" fill="#90ed7d" class="highcharts-point highcharts-color-2"></rect><rect x="140" y="40" width="22" height="25" fill="#90ed7d" class="highcharts-point highcharts-color-2"></rect><rect x="113" y="43" width="22" height="27" fill="#90ed7d" class="highcharts-point highcharts-color-2"></rect><rect x="86" y="45" width="22" height="33" fill="#90ed7d" class="highcharts-point highcharts-color-2"></rect><rect x="58" y="42" width="22" height="29" fill="#90ed7d" class="highcharts-point highcharts-color-2"></rect><rect x="31" y="45" width="22" height="29" fill="#90ed7d" class="highcharts-point highcharts-color-2"></rect><rect x="3" y="44" width="22" height="31" fill="#90ed7d" class="highcharts-point highcharts-color-2"></rect></g><g class="highcharts-markers highcharts-series-2 highcharts-bar-series highcharts-color-2 " transform="translate(1190,706) rotate(90) scale(-1,1) scale(1 1)" width="932" height="659" clip-path="none"></g><g class="highcharts-series highcharts-series-3 highcharts-bar-series highcharts-color-3 " transform="translate(1190,706) rotate(90) scale(-1,1) scale(1 1)" width="932" height="659" clip-path="url(#highcharts-ls0dkz3-307)"><rect x="635" y="0" width="22" height="43" fill="#f7a35c" class="highcharts-point highcharts-color-3"></rect><rect x="607" y="0" width="22" height="39" fill="#f7a35c" class="highcharts-point highcharts-color-3"></rect><rect x="580" y="0" width="22" height="42" fill="#f7a35c" class="highcharts-point highcharts-color-3"></rect><rect x="552" y="0" width="22" height="41" fill="#f7a35c" class="highcharts-point highcharts-color-3"></rect><rect x="525" y="0" width="22" height="40" fill="#f7a35c" class="highcharts-point highcharts-color-3"></rect><rect x="497" y="0" width="22" height="41" fill="#f7a35c" class="highcharts-point highcharts-color-3"></rect><rect x="470" y="0" width="22" height="43" fill="#f7a35c" class="highcharts-point highcharts-color-3"></rect><rect x="443" y="0" width="22" height="40" fill="#f7a35c" class="highcharts-point highcharts-color-3"></rect><rect x="415" y="0" width="22" height="42" fill="#f7a35c" class="highcharts-point highcharts-color-3"></rect><rect x="388" y="0" width="22" height="41" fill="#f7a35c" class="highcharts-point highcharts-color-3"></rect><rect x="360" y="0" width="22" height="42" fill="#f7a35c" class="highcharts-point highcharts-color-3"></rect><rect x="333" y="0" width="22" height="41" fill="#f7a35c" class="highcharts-point highcharts-color-3"></rect><rect x="305" y="0" width="22" height="44" fill="#f7a35c" class="highcharts-point highcharts-color-3"></rect><rect x="278" y="0" width="22" height="40" fill="#f7a35c" class="highcharts-point highcharts-color-3"></rect><rect x="250" y="0" width="22" height="44" fill="#f7a35c" class="highcharts-point highcharts-color-3"></rect><rect x="223" y="0" width="22" height="43" fill="#f7a35c" class="highcharts-point highcharts-color-3"></rect><rect x="195" y="0" width="22" height="37" fill="#f7a35c" class="highcharts-point highcharts-color-3"></rect><rect x="168" y="0" width="22" height="42" fill="#f7a35c" class="highcharts-point highcharts-color-3"></rect><rect x="140" y="0" width="22" height="40" fill="#f7a35c" class="highcharts-point highcharts-color-3"></rect><rect x="113" y="0" width="22" height="43" fill="#f7a35c" class="highcharts-point highcharts-color-3"></rect><rect x="86" y="0" width="22" height="45" fill="#f7a35c" class="highcharts-point highcharts-color-3"></rect><rect x="58" y="0" width="22" height="42" fill="#f7a35c" class="highcharts-point highcharts-color-3"></rect><rect x="31" y="0" width="22" height="45" fill="#f7a35c" class="highcharts-point highcharts-color-3"></rect><rect x="3" y="0" width="22" height="44" fill="#f7a35c" class="highcharts-point highcharts-color-3"></rect></g><g class="highcharts-markers highcharts-series-3 highcharts-bar-series highcharts-color-3 " transform="translate(1190,706) rotate(90) scale(-1,1) scale(1 1)" width="932" height="659" clip-path="none"></g></g><text x="600" text-anchor="middle" class="highcharts-title" style="color:#333333;font-size:18px;fill:#333333;width:1136px;" y="24"><tspan>featureCounts: Assignments</tspan></text><g class="highcharts-legend" transform="translate(272,759)"><rect fill="none" class="highcharts-legend-box" rx="0" ry="0" x="0" y="0" width="656" height="26" visibility="visible"></rect><g><g><g class="highcharts-legend-item highcharts-bar-series highcharts-color-0 highcharts-series-0" transform="translate(8,3)"><text x="21" style="color:#333333;font-size:12px;font-weight:bold;cursor:pointer;fill:#333333;" text-anchor="start" y="15">Assigned</text><rect x="2" y="4" width="12" height="12" fill="#7cb5ec" rx="6" ry="6" class="highcharts-point"></rect></g><g class="highcharts-legend-item highcharts-bar-series highcharts-color-1 highcharts-series-1" transform="translate(104.83333206176758,3)"><text x="21" y="15" style="color:#333333;font-size:12px;font-weight:bold;cursor:pointer;fill:#333333;" text-anchor="start">Unassigned_MultiMapping</text><rect x="2" y="4" width="12" height="12" fill="#434348" rx="6" ry="6" class="highcharts-point"></rect></g><g class="highcharts-legend-item highcharts-bar-series highcharts-color-2 highcharts-series-2" transform="translate(303.28332901000977,3)"><text x="21" y="15" style="color:#333333;font-size:12px;font-weight:bold;cursor:pointer;fill:#333333;" text-anchor="start">Unassigned_NoFeatures</text><rect x="2" y="4" width="12" height="12" fill="#90ed7d" rx="6" ry="6" class="highcharts-point"></rect></g><g class="highcharts-legend-item highcharts-bar-series highcharts-color-3 highcharts-series-3" transform="translate(489.45000076293945,3)"><text x="21" y="15" style="color:#333333;font-size:12px;font-weight:bold;cursor:pointer;fill:#333333;" text-anchor="start">Unassigned_Ambiguity</text><rect x="2" y="4" width="12" height="12" fill="#f7a35c" rx="6" ry="6" class="highcharts-point"></rect></g></g></g></g><g class="highcharts-axis-labels highcharts-xaxis-labels "><text x="243" style="color:#666666;cursor:default;font-size:11px;fill:#666666;width:386px;text-overflow:clip;" text-anchor="end" transform="translate(0,0)" y="65" opacity="1"><tspan>QBOBA025A0_L34786_Track69719</tspan></text><text x="243" style="color:#666666;cursor:default;font-size:11px;fill:#666666;width:386px;text-overflow:clip;" text-anchor="end" transform="translate(0,0)" y="92" opacity="1"><tspan>QBOBA026A8_L34787_Track69720</tspan></text><text x="243" style="color:#666666;cursor:default;font-size:11px;fill:#666666;width:386px;text-overflow:clip;" text-anchor="end" transform="translate(0,0)" y="120" opacity="1"><tspan>QBOBA027AG_L34788_Track69721</tspan></text><text x="243" style="color:#666666;cursor:default;font-size:11px;fill:#666666;width:386px;text-overflow:clip;" text-anchor="end" transform="translate(0,0)" y="147" opacity="1"><tspan>QBOBA028AO_L34789_Track69722</tspan></text><text x="243" style="color:#666666;cursor:default;font-size:11px;fill:#666666;width:386px;text-overflow:clip;" text-anchor="end" transform="translate(0,0)" y="175" opacity="1"><tspan>QBOBA029AW_L34790_Track69723</tspan></text><text x="243" style="color:#666666;cursor:default;font-size:11px;fill:#666666;width:386px;text-overflow:clip;" text-anchor="end" transform="translate(0,0)" y="202" opacity="1"><tspan>QBOBA030A1_L34791_Track69724</tspan></text><text x="243" style="color:#666666;cursor:default;font-size:11px;fill:#666666;width:386px;text-overflow:clip;" text-anchor="end" transform="translate(0,0)" y="230" opacity="1"><tspan>QBOBA031A9_L34792_Track69725</tspan></text><text x="243" style="color:#666666;cursor:default;font-size:11px;fill:#666666;width:386px;text-overflow:clip;" text-anchor="end" transform="translate(0,0)" y="257" opacity="1"><tspan>QBOBA032AH_L34793_Track69726</tspan></text><text x="243" style="color:#666666;cursor:default;font-size:11px;fill:#666666;width:386px;text-overflow:clip;" text-anchor="end" transform="translate(0,0)" y="285" opacity="1"><tspan>QBOBA033AP_L34794_Track69727_Track69745</tspan></text><text x="243" style="color:#666666;cursor:default;font-size:11px;fill:#666666;width:386px;text-overflow:clip;" text-anchor="end" transform="translate(0,0)" y="312" opacity="1"><tspan>QBOBA034AX_L34795_Track69728</tspan></text><text x="243" style="color:#666666;cursor:default;font-size:11px;fill:#666666;width:386px;text-overflow:clip;" text-anchor="end" transform="translate(0,0)" y="340" opacity="1"><tspan>QBOBA035A7_L34796_Track69729</tspan></text><text x="243" style="color:#666666;cursor:default;font-size:11px;fill:#666666;width:386px;text-overflow:clip;" text-anchor="end" transform="translate(0,0)" y="367" opacity="1"><tspan>QBOBA036AF_L34797_Track69730</tspan></text><text x="243" style="color:#666666;cursor:default;font-size:11px;fill:#666666;width:386px;text-overflow:clip;" text-anchor="end" transform="translate(0,0)" y="395" opacity="1"><tspan>QBOBA037AN_L34798_Track69731</tspan></text><text x="243" style="color:#666666;cursor:default;font-size:11px;fill:#666666;width:386px;text-overflow:clip;" text-anchor="end" transform="translate(0,0)" y="422" opacity="1"><tspan>QBOBA038AV_L34799_Track69732_Track69746</tspan></text><text x="243" style="color:#666666;cursor:default;font-size:11px;fill:#666666;width:386px;text-overflow:clip;" text-anchor="end" transform="translate(0,0)" y="449" opacity="1"><tspan>QBOBA039A5_L34800_Track69735</tspan></text><text x="243" style="color:#666666;cursor:default;font-size:11px;fill:#666666;width:386px;text-overflow:clip;" text-anchor="end" transform="translate(0,0)" y="477" opacity="1"><tspan>QBOBA040A8_L34801_Track69736_Track69759</tspan></text><text x="243" style="color:#666666;cursor:default;font-size:11px;fill:#666666;width:386px;text-overflow:clip;" text-anchor="end" transform="translate(0,0)" y="504" opacity="1"><tspan>QBOBA041AG_L34802_Track69737</tspan></text><text x="243" style="color:#666666;cursor:default;font-size:11px;fill:#666666;width:386px;text-overflow:clip;" text-anchor="end" transform="translate(0,0)" y="532" opacity="1"><tspan>QBOBA042AO_L34803_Track69738</tspan></text><text x="243" style="color:#666666;cursor:default;font-size:11px;fill:#666666;width:386px;text-overflow:clip;" text-anchor="end" transform="translate(0,0)" y="559" opacity="1"><tspan>QBOBA043AW_L34804_Track69739</tspan></text><text x="243" style="color:#666666;cursor:default;font-size:11px;fill:#666666;width:386px;text-overflow:clip;" text-anchor="end" transform="translate(0,0)" y="587" opacity="1"><tspan>QBOBA044A6_L34805_Track69740</tspan></text><text x="243" style="color:#666666;cursor:default;font-size:11px;fill:#666666;width:386px;text-overflow:clip;" text-anchor="end" transform="translate(0,0)" y="614" opacity="1"><tspan>QBOBA045AE_L34806_Track69741</tspan></text><text x="243" style="color:#666666;cursor:default;font-size:11px;fill:#666666;width:386px;text-overflow:clip;" text-anchor="end" transform="translate(0,0)" y="642" opacity="1"><tspan>QBOBA046AM_L34807_Track69742</tspan></text><text x="243" style="color:#666666;cursor:default;font-size:11px;fill:#666666;width:386px;text-overflow:clip;" text-anchor="end" transform="translate(0,0)" y="669" opacity="1"><tspan>QBOBA047AU_L34808_Track69743</tspan></text><text x="243" style="color:#666666;cursor:default;font-size:11px;fill:#666666;width:386px;text-overflow:clip;" text-anchor="end" transform="translate(0,0)" y="697" opacity="1"><tspan>QBOBA048A4_L34809_Track69744</tspan></text></g><g class="highcharts-axis-labels highcharts-yaxis-labels "><text x="258" style="color:#666666;cursor:default;font-size:11px;fill:#666666;width:83px;text-overflow:clip;" text-anchor="middle" transform="translate(0,0)" y="725" opacity="1"><tspan>0</tspan></text><text x="351.2" style="color:#666666;cursor:default;font-size:11px;fill:#666666;width:83px;text-overflow:clip;" text-anchor="middle" transform="translate(0,0)" y="725" opacity="1"><tspan>10</tspan></text><text x="444.4" style="color:#666666;cursor:default;font-size:11px;fill:#666666;width:83px;text-overflow:clip;" text-anchor="middle" transform="translate(0,0)" y="725" opacity="1"><tspan>20</tspan></text><text x="537.6" style="color:#666666;cursor:default;font-size:11px;fill:#666666;width:83px;text-overflow:clip;" text-anchor="middle" transform="translate(0,0)" y="725" opacity="1"><tspan>30</tspan></text><text x="630.8" style="color:#666666;cursor:default;font-size:11px;fill:#666666;width:83px;text-overflow:clip;" text-anchor="middle" transform="translate(0,0)" y="725" opacity="1"><tspan>40</tspan></text><text x="724" style="color:#666666;cursor:default;font-size:11px;fill:#666666;width:83px;text-overflow:clip;" text-anchor="middle" transform="translate(0,0)" y="725" opacity="1"><tspan>50</tspan></text><text x="817.2" style="color:#666666;cursor:default;font-size:11px;fill:#666666;width:83px;text-overflow:clip;" text-anchor="middle" transform="translate(0,0)" y="725" opacity="1"><tspan>60</tspan></text><text x="910.4" style="color:#666666;cursor:default;font-size:11px;fill:#666666;width:83px;text-overflow:clip;" text-anchor="middle" transform="translate(0,0)" y="725" opacity="1"><tspan>70</tspan></text><text x="1003.6" style="color:#666666;cursor:default;font-size:11px;fill:#666666;width:83px;text-overflow:clip;" text-anchor="middle" transform="translate(0,0)" y="725" opacity="1"><tspan>80</tspan></text><text x="1096.8000000000002" style="color:#666666;cursor:default;font-size:11px;fill:#666666;width:83px;text-overflow:clip;" text-anchor="middle" transform="translate(0,0)" y="725" opacity="1"><tspan>90</tspan></text><text x="1181.625" style="color:#666666;cursor:default;font-size:11px;fill:#666666;width:83px;text-overflow:clip;" text-anchor="middle" transform="translate(0,0)" y="725" opacity="1"><tspan>100</tspan></text></g><text x="1190" class="highcharts-credits" text-anchor="end" style="cursor:pointer;color:#999999;font-size:9px;fill:#999999;" y="795"><tspan>Created with MultiQC</tspan></text></svg>