<svg xmlns:xlink="http://www.w3.org/1999/xlink" version="1.1" class="highcharts-root" style="font-family:&quot;lucida grande&quot;, &quot;lucida sans unicode&quot;, arial, helvetica, sans-serif;font-size:12px;" xmlns="http://www.w3.org/2000/svg" width="1200" height="800"><desc>Created with Highcharts 5.0.6</desc><defs><clipPath id="highcharts-1kd7a80-278"><rect x="0" y="0" width="662" height="922" fill="none"></rect></clipPath></defs><rect fill="#ffffff" class="highcharts-background" x="0" y="0" width="1200" height="800" rx="0" ry="0"></rect><rect fill="none" class="highcharts-plot-background" x="268" y="46" width="922" height="662"></rect><g class="highcharts-grid highcharts-xaxis-grid "><path fill="none" class="highcharts-grid-line" d="M 268 74.5 L 1190 74.5" opacity="1"></path><path fill="none" class="highcharts-grid-line" d="M 268 101.5 L 1190 101.5" opacity="1"></path><path fill="none" class="highcharts-grid-line" d="M 268 129.5 L 1190 129.5" opacity="1"></path><path fill="none" class="highcharts-grid-line" d="M 268 156.5 L 1190 156.5" opacity="1"></path><path fill="none" class="highcharts-grid-line" d="M 268 184.5 L 1190 184.5" opacity="1"></path><path fill="none" class="highcharts-grid-line" d="M 268 212.5 L 1190 212.5" opacity="1"></path><path fill="none" class="highcharts-grid-line" d="M 268 239.5 L 1190 239.5" opacity="1"></path><path fill="none" class="highcharts-grid-line" d="M 268 267.5 L 1190 267.5" opacity="1"></path><path fill="none" class="highcharts-grid-line" d="M 268 294.5 L 1190 294.5" opacity="1"></path><path fill="none" class="highcharts-grid-line" d="M 268 322.5 L 1190 322.5" opacity="1"></path><path fill="none" class="highcharts-grid-line" d="M 268 349.5 L 1190 349.5" opacity="1"></path><path fill="none" class="highcharts-grid-line" d="M 268 377.5 L 1190 377.5" opacity="1"></path><path fill="none" class="highcharts-grid-line" d="M 268 405.5 L 1190 405.5" opacity="1"></path><path fill="none" class="highcharts-grid-line" d="M 268 432.5 L 1190 432.5" opacity="1"></path><path fill="none" class="highcharts-grid-line" d="M 268 460.5 L 1190 460.5" opacity="1"></path><path fill="none" class="highcharts-grid-line" d="M 268 487.5 L 1190 487.5" opacity="1"></path><path fill="none" class="highcharts-grid-line" d="M 268 515.5 L 1190 515.5" opacity="1"></path><path fill="none" class="highcharts-grid-line" d="M 268 543.5 L 1190 543.5" opacity="1"></path><path fill="none" class="highcharts-grid-line" d="M 268 570.5 L 1190 570.5" opacity="1"></path><path fill="none" class="highcharts-grid-line" d="M 268 598.5 L 1190 598.5" opacity="1"></path><path fill="none" class="highcharts-grid-line" d="M 268 625.5 L 1190 625.5" opacity="1"></path><path fill="none" class="highcharts-grid-line" d="M 268 653.5 L 1190 653.5" opacity="1"></path><path fill="none" class="highcharts-grid-line" d="M 268 680.5 L 1190 680.5" opacity="1"></path><path fill="none" class="highcharts-grid-line" d="M 268 708.5 L 1190 708.5" opacity="1"></path><path fill="none" class="highcharts-grid-line" d="M 268 46.5 L 1190 46.5" opacity="1"></path></g><g class="highcharts-grid highcharts-yaxis-grid "><path fill="none" stroke="#e6e6e6" stroke-width="1" class="highcharts-grid-line" d="M 267.5 46 L 267.5 708" opacity="1"></path><path fill="none" stroke="#e6e6e6" stroke-width="1" class="highcharts-grid-line" d="M 359.5 46 L 359.5 708" opacity="1"></path><path fill="none" stroke="#e6e6e6" stroke-width="1" class="highcharts-grid-line" d="M 451.5 46 L 451.5 708" opacity="1"></path><path fill="none" stroke="#e6e6e6" stroke-width="1" class="highcharts-grid-line" d="M 544.5 46 L 544.5 708" opacity="1"></path><path fill="none" stroke="#e6e6e6" stroke-width="1" class="highcharts-grid-line" d="M 636.5 46 L 636.5 708" opacity="1"></path><path fill="none" stroke="#e6e6e6" stroke-width="1" class="highcharts-grid-line" d="M 728.5 46 L 728.5 708" opacity="1"></path><path fill="none" stroke="#e6e6e6" stroke-width="1" class="highcharts-grid-line" d="M 820.5 46 L 820.5 708" opacity="1"></path><path fill="none" stroke="#e6e6e6" stroke-width="1" class="highcharts-grid-line" d="M 912.5 46 L 912.5 708" opacity="1"></path><path fill="none" stroke="#e6e6e6" stroke-width="1" class="highcharts-grid-line" d="M 1005.5 46 L 1005.5 708" opacity="1"></path><path fill="none" stroke="#e6e6e6" stroke-width="1" class="highcharts-grid-line" d="M 1097.5 46 L 1097.5 708" opacity="1"></path><path fill="none" stroke="#e6e6e6" stroke-width="1" class="highcharts-grid-line" d="M 1190.5 46 L 1190.5 708" opacity="1"></path></g><rect fill="none" class="highcharts-plot-border" x="268" y="46" width="922" height="662"></rect><g class="highcharts-axis highcharts-xaxis "><path fill="none" class="highcharts-tick" stroke="#ccd6eb" stroke-width="1" d="M 268 74.5 L 258 74.5" opacity="1"></path><path fill="none" class="highcharts-tick" stroke="#ccd6eb" stroke-width="1" d="M 268 101.5 L 258 101.5" opacity="1"></path><path fill="none" class="highcharts-tick" stroke="#ccd6eb" stroke-width="1" d="M 268 129.5 L 258 129.5" opacity="1"></path><path fill="none" class="highcharts-tick" stroke="#ccd6eb" stroke-width="1" d="M 268 156.5 L 258 156.5" opacity="1"></path><path fill="none" class="highcharts-tick" stroke="#ccd6eb" stroke-width="1" d="M 268 184.5 L 258 184.5" opacity="1"></path><path fill="none" class="highcharts-tick" stroke="#ccd6eb" stroke-width="1" d="M 268 212.5 L 258 212.5" opacity="1"></path><path fill="none" class="highcharts-tick" stroke="#ccd6eb" stroke-width="1" d="M 268 239.5 L 258 239.5" opacity="1"></path><path fill="none" class="highcharts-tick" stroke="#ccd6eb" stroke-width="1" d="M 268 267.5 L 258 267.5" opacity="1"></path><path fill="none" class="highcharts-tick" stroke="#ccd6eb" stroke-width="1" d="M 268 294.5 L 258 294.5" opacity="1"></path><path fill="none" class="highcharts-tick" stroke="#ccd6eb" stroke-width="1" d="M 268 322.5 L 258 322.5" opacity="1"></path><path fill="none" class="highcharts-tick" stroke="#ccd6eb" stroke-width="1" d="M 268 349.5 L 258 349.5" opacity="1"></path><path fill="none" class="highcharts-tick" stroke="#ccd6eb" stroke-width="1" d="M 268 377.5 L 258 377.5" opacity="1"></path><path fill="none" class="highcharts-tick" stroke="#ccd6eb" stroke-width="1" d="M 268 405.5 L 258 405.5" opacity="1"></path><path fill="none" class="highcharts-tick" stroke="#ccd6eb" stroke-width="1" d="M 268 432.5 L 258 432.5" opacity="1"></path><path fill="none" class="highcharts-tick" stroke="#ccd6eb" stroke-width="1" d="M 268 460.5 L 258 460.5" opacity="1"></path><path fill="none" class="highcharts-tick" stroke="#ccd6eb" stroke-width="1" d="M 268 487.5 L 258 487.5" opacity="1"></path><path fill="none" class="highcharts-tick" stroke="#ccd6eb" stroke-width="1" d="M 268 515.5 L 258 515.5" opacity="1"></path><path fill="none" class="highcharts-tick" stroke="#ccd6eb" stroke-width="1" d="M 268 543.5 L 258 543.5" opacity="1"></path><path fill="none" class="highcharts-tick" stroke="#ccd6eb" stroke-width="1" d="M 268 570.5 L 258 570.5" opacity="1"></path><path fill="none" class="highcharts-tick" stroke="#ccd6eb" stroke-width="1" d="M 268 598.5 L 258 598.5" opacity="1"></path><path fill="none" class="highcharts-tick" stroke="#ccd6eb" stroke-width="1" d="M 268 625.5 L 258 625.5" opacity="1"></path><path fill="none" class="highcharts-tick" stroke="#ccd6eb" stroke-width="1" d="M 268 653.5 L 258 653.5" opacity="1"></path><path fill="none" class="highcharts-tick" stroke="#ccd6eb" stroke-width="1" d="M 268 680.5 L 258 680.5" opacity="1"></path><path fill="none" class="highcharts-tick" stroke="#ccd6eb" stroke-width="1" d="M 268 708.5 L 258 708.5" opacity="1"></path><path fill="none" class="highcharts-tick" stroke="#ccd6eb" stroke-width="1" d="M 268 45.5 L 258 45.5" opacity="1"></path><path fill="none" class="highcharts-axis-line" stroke="#ccd6eb" stroke-width="1" d="M 267.5 46 L 267.5 708"></path></g><g class="highcharts-axis highcharts-yaxis "><text x="729" text-anchor="middle" transform="translate(0,0)" class="highcharts-axis-title" style="color:#666666;fill:#666666;" y="746">Percentages</text><path fill="none" class="highcharts-axis-line" d="M 268 708 L 1190 708"></path></g><g class="highcharts-series-group"><g class="highcharts-series highcharts-series-0 highcharts-bar-series highcharts-color-undefined " transform="translate(1190,708) rotate(90) scale(-1,1) scale(1 1)" width="922" height="662" clip-path="url(#highcharts-1kd7a80-278)"><rect x="638" y="64" width="22" height="859" fill="#437bb1" class="highcharts-point"></rect><rect x="610" y="72" width="22" height="851" fill="#437bb1" class="highcharts-point"></rect><rect x="582" y="67" width="22" height="856" fill="#437bb1" class="highcharts-point"></rect><rect x="555" y="72" width="22" height="851" fill="#437bb1" class="highcharts-point"></rect><rect x="527" y="60" width="22" height="863" fill="#437bb1" class="highcharts-point"></rect><rect x="500" y="61" width="22" height="862" fill="#437bb1" class="highcharts-point"></rect><rect x="472" y="65" width="22" height="858" fill="#437bb1" class="highcharts-point"></rect><rect x="445" y="66" width="22" height="857" fill="#437bb1" class="highcharts-point"></rect><rect x="417" y="64" width="22" height="859" fill="#437bb1" class="highcharts-point"></rect><rect x="389" y="64" width="22" height="859" fill="#437bb1" class="highcharts-point"></rect><rect x="362" y="68" width="22" height="855" fill="#437bb1" class="highcharts-point"></rect><rect x="334" y="70" width="22" height="853" fill="#437bb1" class="highcharts-point"></rect><rect x="307" y="69" width="22" height="854" fill="#437bb1" class="highcharts-point"></rect><rect x="279" y="73" width="22" height="850" fill="#437bb1" class="highcharts-point"></rect><rect x="251" y="86" width="22" height="837" fill="#437bb1" class="highcharts-point"></rect><rect x="224" y="80" width="22" height="843" fill="#437bb1" class="highcharts-point"></rect><rect x="196" y="67" width="22" height="856" fill="#437bb1" class="highcharts-point"></rect><rect x="169" y="69" width="22" height="854" fill="#437bb1" class="highcharts-point"></rect><rect x="141" y="69" width="22" height="854" fill="#437bb1" class="highcharts-point"></rect><rect x="114" y="70" width="22" height="853" fill="#437bb1" class="highcharts-point"></rect><rect x="86" y="71" width="22" height="852" fill="#437bb1" class="highcharts-point"></rect><rect x="58" y="71" width="22" height="852" fill="#437bb1" class="highcharts-point"></rect><rect x="31" y="77" width="22" height="846" fill="#437bb1" class="highcharts-point"></rect><rect x="3" y="73" width="22" height="850" fill="#437bb1" class="highcharts-point"></rect></g><g class="highcharts-markers highcharts-series-0 highcharts-bar-series highcharts-color-undefined " transform="translate(1190,708) rotate(90) scale(-1,1) scale(1 1)" width="922" height="662" clip-path="none"></g><g class="highcharts-series highcharts-series-1 highcharts-bar-series highcharts-color-undefined " transform="translate(1190,708) rotate(90) scale(-1,1) scale(1 1)" width="922" height="662" clip-path="url(#highcharts-1kd7a80-278)"><rect x="638" y="6" width="22" height="58" fill="#7cb5ec" class="highcharts-point"></rect><rect x="610" y="6" width="22" height="66" fill="#7cb5ec" class="highcharts-point"></rect><rect x="582" y="6" width="22" height="61" fill="#7cb5ec" class="highcharts-point"></rect><rect x="555" y="6" width="22" height="66" fill="#7cb5ec" class="highcharts-point"></rect><rect x="527" y="6" width="22" height="54" fill="#7cb5ec" class="highcharts-point"></rect><rect x="500" y="6" width="22" height="55" fill="#7cb5ec" class="highcharts-point"></rect><rect x="472" y="6" width="22" height="59" fill="#7cb5ec" class="highcharts-point"></rect><rect x="445" y="6" width="22" height="60" fill="#7cb5ec" class="highcharts-point"></rect><rect x="417" y="6" width="22" height="58" fill="#7cb5ec" class="highcharts-point"></rect><rect x="389" y="6" width="22" height="58" fill="#7cb5ec" class="highcharts-point"></rect><rect x="362" y="6" width="22" height="62" fill="#7cb5ec" class="highcharts-point"></rect><rect x="334" y="5" width="22" height="65" fill="#7cb5ec" class="highcharts-point"></rect><rect x="307" y="6" width="22" height="63" fill="#7cb5ec" class="highcharts-point"></rect><rect x="279" y="7" width="22" height="66" fill="#7cb5ec" class="highcharts-point"></rect><rect x="251" y="6" width="22" height="80" fill="#7cb5ec" class="highcharts-point"></rect><rect x="224" y="6" width="22" height="74" fill="#7cb5ec" class="highcharts-point"></rect><rect x="196" y="5" width="22" height="62" fill="#7cb5ec" class="highcharts-point"></rect><rect x="169" y="6" width="22" height="63" fill="#7cb5ec" class="highcharts-point"></rect><rect x="141" y="5" width="22" height="64" fill="#7cb5ec" class="highcharts-point"></rect><rect x="114" y="6" width="22" height="64" fill="#7cb5ec" class="highcharts-point"></rect><rect x="86" y="6" width="22" height="65" fill="#7cb5ec" class="highcharts-point"></rect><rect x="58" y="8" width="22" height="63" fill="#7cb5ec" class="highcharts-point"></rect><rect x="31" y="6" width="22" height="71" fill="#7cb5ec" class="highcharts-point"></rect><rect x="3" y="6" width="22" height="67" fill="#7cb5ec" class="highcharts-point"></rect></g><g class="highcharts-markers highcharts-series-1 highcharts-bar-series highcharts-color-undefined " transform="translate(1190,708) rotate(90) scale(-1,1) scale(1 1)" width="922" height="662" clip-path="none"></g><g class="highcharts-series highcharts-series-2 highcharts-bar-series highcharts-color-undefined " transform="translate(1190,708) rotate(90) scale(-1,1) scale(1 1)" width="922" height="662" clip-path="url(#highcharts-1kd7a80-278)"><rect x="638" y="5" width="22" height="1" fill="#f7a35c" class="highcharts-point"></rect><rect x="610" y="5" width="22" height="1" fill="#f7a35c" class="highcharts-point"></rect><rect x="582" y="5" width="22" height="1" fill="#f7a35c" class="highcharts-point"></rect><rect x="555" y="5" width="22" height="1" fill="#f7a35c" class="highcharts-point"></rect><rect x="527" y="5" width="22" height="1" fill="#f7a35c" class="highcharts-point"></rect><rect x="500" y="6" width="22" height="0" fill="#f7a35c" class="highcharts-point"></rect><rect x="472" y="5" width="22" height="1" fill="#f7a35c" class="highcharts-point"></rect><rect x="445" y="5" width="22" height="1" fill="#f7a35c" class="highcharts-point"></rect><rect x="417" y="5" width="22" height="1" fill="#f7a35c" class="highcharts-point"></rect><rect x="389" y="5" width="22" height="1" fill="#f7a35c" class="highcharts-point"></rect><rect x="362" y="5" width="22" height="1" fill="#f7a35c" class="highcharts-point"></rect><rect x="334" y="5" width="22" height="0" fill="#f7a35c" class="highcharts-point"></rect><rect x="307" y="5" width="22" height="1" fill="#f7a35c" class="highcharts-point"></rect><rect x="279" y="6" width="22" height="1" fill="#f7a35c" class="highcharts-point"></rect><rect x="251" y="5" width="22" height="1" fill="#f7a35c" class="highcharts-point"></rect><rect x="224" y="6" width="22" height="0" fill="#f7a35c" class="highcharts-point"></rect><rect x="196" y="5" width="22" height="0" fill="#f7a35c" class="highcharts-point"></rect><rect x="169" y="5" width="22" height="1" fill="#f7a35c" class="highcharts-point"></rect><rect x="141" y="5" width="22" height="0" fill="#f7a35c" class="highcharts-point"></rect><rect x="114" y="5" width="22" height="1" fill="#f7a35c" class="highcharts-point"></rect><rect x="86" y="5" width="22" height="1" fill="#f7a35c" class="highcharts-point"></rect><rect x="58" y="6" width="22" height="2" fill="#f7a35c" class="highcharts-point"></rect><rect x="31" y="5" width="22" height="1" fill="#f7a35c" class="highcharts-point"></rect><rect x="3" y="5" width="22" height="1" fill="#f7a35c" class="highcharts-point"></rect></g><g class="highcharts-markers highcharts-series-2 highcharts-bar-series highcharts-color-undefined " transform="translate(1190,708) rotate(90) scale(-1,1) scale(1 1)" width="922" height="662" clip-path="none"></g><g class="highcharts-series highcharts-series-3 highcharts-bar-series highcharts-color-undefined " transform="translate(1190,708) rotate(90) scale(-1,1) scale(1 1)" width="922" height="662" clip-path="url(#highcharts-1kd7a80-278)"><rect x="638" y="0" width="22" height="5" fill="#b1084c" class="highcharts-point"></rect><rect x="610" y="0" width="22" height="5" fill="#b1084c" class="highcharts-point"></rect><rect x="582" y="0" width="22" height="5" fill="#b1084c" class="highcharts-point"></rect><rect x="555" y="0" width="22" height="5" fill="#b1084c" class="highcharts-point"></rect><rect x="527" y="0" width="22" height="5" fill="#b1084c" class="highcharts-point"></rect><rect x="500" y="0" width="22" height="6" fill="#b1084c" class="highcharts-point"></rect><rect x="472" y="0" width="22" height="5" fill="#b1084c" class="highcharts-point"></rect><rect x="445" y="0" width="22" height="5" fill="#b1084c" class="highcharts-point"></rect><rect x="417" y="0" width="22" height="5" fill="#b1084c" class="highcharts-point"></rect><rect x="389" y="0" width="22" height="5" fill="#b1084c" class="highcharts-point"></rect><rect x="362" y="0" width="22" height="5" fill="#b1084c" class="highcharts-point"></rect><rect x="334" y="0" width="22" height="5" fill="#b1084c" class="highcharts-point"></rect><rect x="307" y="0" width="22" height="5" fill="#b1084c" class="highcharts-point"></rect><rect x="279" y="0" width="22" height="6" fill="#b1084c" class="highcharts-point"></rect><rect x="251" y="0" width="22" height="5" fill="#b1084c" class="highcharts-point"></rect><rect x="224" y="0" width="22" height="6" fill="#b1084c" class="highcharts-point"></rect><rect x="196" y="0" width="22" height="5" fill="#b1084c" class="highcharts-point"></rect><rect x="169" y="0" width="22" height="5" fill="#b1084c" class="highcharts-point"></rect><rect x="141" y="0" width="22" height="5" fill="#b1084c" class="highcharts-point"></rect><rect x="114" y="0" width="22" height="5" fill="#b1084c" class="highcharts-point"></rect><rect x="86" y="0" width="22" height="5" fill="#b1084c" class="highcharts-point"></rect><rect x="58" y="2" width="22" height="4" fill="#b1084c" class="highcharts-point"></rect><rect x="31" y="0" width="22" height="5" fill="#b1084c" class="highcharts-point"></rect><rect x="3" y="2" width="22" height="3" fill="#b1084c" class="highcharts-point"></rect></g><g class="highcharts-markers highcharts-series-3 highcharts-bar-series highcharts-color-undefined " transform="translate(1190,708) rotate(90) scale(-1,1) scale(1 1)" width="922" height="662" clip-path="none"></g><g class="highcharts-series highcharts-series-4 highcharts-bar-series highcharts-color-undefined " transform="translate(1190,708) rotate(90) scale(-1,1) scale(1 1)" width="922" height="662" clip-path="url(#highcharts-1kd7a80-278)"><rect x="638" y="1" width="22" height="0" fill="#7f0000" class="highcharts-point"></rect><rect x="610" y="1" width="22" height="0" fill="#7f0000" class="highcharts-point"></rect><rect x="582" y="1" width="22" height="0" fill="#7f0000" class="highcharts-point"></rect><rect x="555" y="1" width="22" height="0" fill="#7f0000" class="highcharts-point"></rect><rect x="527" y="1" width="22" height="0" fill="#7f0000" class="highcharts-point"></rect><rect x="500" y="1" width="22" height="0" fill="#7f0000" class="highcharts-point"></rect><rect x="472" y="1" width="22" height="0" fill="#7f0000" class="highcharts-point"></rect><rect x="445" y="1" width="22" height="0" fill="#7f0000" class="highcharts-point"></rect><rect x="417" y="1" width="22" height="0" fill="#7f0000" class="highcharts-point"></rect><rect x="389" y="1" width="22" height="0" fill="#7f0000" class="highcharts-point"></rect><rect x="362" y="1" width="22" height="0" fill="#7f0000" class="highcharts-point"></rect><rect x="334" y="1" width="22" height="0" fill="#7f0000" class="highcharts-point"></rect><rect x="307" y="1" width="22" height="0" fill="#7f0000" class="highcharts-point"></rect><rect x="279" y="1" width="22" height="0" fill="#7f0000" class="highcharts-point"></rect><rect x="251" y="1" width="22" height="0" fill="#7f0000" class="highcharts-point"></rect><rect x="224" y="1" width="22" height="0" fill="#7f0000" class="highcharts-point"></rect><rect x="196" y="1" width="22" height="0" fill="#7f0000" class="highcharts-point"></rect><rect x="169" y="1" width="22" height="0" fill="#7f0000" class="highcharts-point"></rect><rect x="141" y="1" width="22" height="0" fill="#7f0000" class="highcharts-point"></rect><rect x="114" y="1" width="22" height="0" fill="#7f0000" class="highcharts-point"></rect><rect x="86" y="1" width="22" height="0" fill="#7f0000" class="highcharts-point"></rect><rect x="58" y="0" width="22" height="2" fill="#7f0000" class="highcharts-point"></rect><rect x="31" y="1" width="22" height="0" fill="#7f0000" class="highcharts-point"></rect><rect x="3" y="0" width="22" height="2" fill="#7f0000" class="highcharts-point"></rect></g><g class="highcharts-markers highcharts-series-4 highcharts-bar-series highcharts-color-undefined " transform="translate(1190,708) rotate(90) scale(-1,1) scale(1 1)" width="922" height="662" clip-path="none"></g></g><text x="600" text-anchor="middle" class="highcharts-title" style="color:#333333;font-size:18px;fill:#333333;width:1136px;" y="24"><tspan>STAR: Alignment Scores</tspan></text><g class="highcharts-legend" transform="translate(207,760)"><rect fill="none" class="highcharts-legend-box" rx="0" ry="0" x="0" y="0" width="787" height="25" visibility="visible"></rect><g><g><g class="highcharts-legend-item highcharts-bar-series highcharts-color-undefined highcharts-series-0" transform="translate(8,3)"><text x="21" style="color:#333333;font-size:12px;font-weight:bold;cursor:pointer;fill:#333333;" text-anchor="start" y="15"><tspan>Uniquely mapped</tspan></text><rect x="2" y="4" width="12" height="12" fill="#437bb1" rx="6" ry="6" class="highcharts-point"></rect></g><g class="highcharts-legend-item highcharts-bar-series highcharts-color-undefined highcharts-series-1" transform="translate(148,3)"><text x="21" y="15" style="color:#333333;font-size:12px;font-weight:bold;cursor:pointer;fill:#333333;" text-anchor="start"><tspan>Mapped to multiple loci</tspan></text><rect x="2" y="4" width="12" height="12" fill="#7cb5ec" rx="6" ry="6" class="highcharts-point"></rect></g><g class="highcharts-legend-item highcharts-bar-series highcharts-color-undefined highcharts-series-2" transform="translate(319,3)"><text x="21" y="15" style="color:#333333;font-size:12px;font-weight:bold;cursor:pointer;fill:#333333;" text-anchor="start"><tspan>Mapped to too many loci</tspan></text><rect x="2" y="4" width="12" height="12" fill="#f7a35c" rx="6" ry="6" class="highcharts-point"></rect></g><g class="highcharts-legend-item highcharts-bar-series highcharts-color-undefined highcharts-series-3" transform="translate(498,3)"><text x="21" y="15" style="color:#333333;font-size:12px;font-weight:bold;cursor:pointer;fill:#333333;" text-anchor="start"><tspan>Unmapped: too short</tspan></text><rect x="2" y="4" width="12" height="12" fill="#b1084c" rx="6" ry="6" class="highcharts-point"></rect></g><g class="highcharts-legend-item highcharts-bar-series highcharts-color-undefined highcharts-series-4" transform="translate(659,3)"><text x="21" y="15" style="color:#333333;font-size:12px;font-weight:bold;cursor:pointer;fill:#333333;" text-anchor="start"><tspan>Unmapped: other</tspan></text><rect x="2" y="4" width="12" height="12" fill="#7f0000" rx="6" ry="6" class="highcharts-point"></rect></g></g></g></g><g class="highcharts-axis-labels highcharts-xaxis-labels "><text x="253" style="color:#666666;cursor:default;font-size:11px;fill:#666666;width:386px;text-overflow:clip;" text-anchor="end" transform="translate(0,0)" y="64" opacity="1"><tspan>QBOBA025A0_L34786_Track69719</tspan></text><text x="253" style="color:#666666;cursor:default;font-size:11px;fill:#666666;width:386px;text-overflow:clip;" text-anchor="end" transform="translate(0,0)" y="92" opacity="1"><tspan>QBOBA026A8_L34787_Track69720</tspan></text><text x="253" style="color:#666666;cursor:default;font-size:11px;fill:#666666;width:386px;text-overflow:clip;" text-anchor="end" transform="translate(0,0)" y="119" opacity="1"><tspan>QBOBA027AG_L34788_Track69721</tspan></text><text x="253" style="color:#666666;cursor:default;font-size:11px;fill:#666666;width:386px;text-overflow:clip;" text-anchor="end" transform="translate(0,0)" y="147" opacity="1"><tspan>QBOBA028AO_L34789_Track69722</tspan></text><text x="253" style="color:#666666;cursor:default;font-size:11px;fill:#666666;width:386px;text-overflow:clip;" text-anchor="end" transform="translate(0,0)" y="175" opacity="1"><tspan>QBOBA029AW_L34790_Track69723</tspan></text><text x="253" style="color:#666666;cursor:default;font-size:11px;fill:#666666;width:386px;text-overflow:clip;" text-anchor="end" transform="translate(0,0)" y="202" opacity="1"><tspan>QBOBA030A1_L34791_Track69724</tspan></text><text x="253" style="color:#666666;cursor:default;font-size:11px;fill:#666666;width:386px;text-overflow:clip;" text-anchor="end" transform="translate(0,0)" y="230" opacity="1"><tspan>QBOBA031A9_L34792_Track69725</tspan></text><text x="253" style="color:#666666;cursor:default;font-size:11px;fill:#666666;width:386px;text-overflow:clip;" text-anchor="end" transform="translate(0,0)" y="257" opacity="1"><tspan>QBOBA032AH_L34793_Track69726</tspan></text><text x="253" style="color:#666666;cursor:default;font-size:11px;fill:#666666;width:386px;text-overflow:clip;" text-anchor="end" transform="translate(0,0)" y="285" opacity="1"><tspan>QBOBA033AP_L34794_Track69727_Track69745</tspan></text><text x="253" style="color:#666666;cursor:default;font-size:11px;fill:#666666;width:386px;text-overflow:clip;" text-anchor="end" transform="translate(0,0)" y="313" opacity="1"><tspan>QBOBA034AX_L34795_Track69728</tspan></text><text x="253" style="color:#666666;cursor:default;font-size:11px;fill:#666666;width:386px;text-overflow:clip;" text-anchor="end" transform="translate(0,0)" y="340" opacity="1"><tspan>QBOBA035A7_L34796_Track69729</tspan></text><text x="253" style="color:#666666;cursor:default;font-size:11px;fill:#666666;width:386px;text-overflow:clip;" text-anchor="end" transform="translate(0,0)" y="368" opacity="1"><tspan>QBOBA036AF_L34797_Track69730</tspan></text><text x="253" style="color:#666666;cursor:default;font-size:11px;fill:#666666;width:386px;text-overflow:clip;" text-anchor="end" transform="translate(0,0)" y="395" opacity="1"><tspan>QBOBA037AN_L34798_Track69731</tspan></text><text x="253" style="color:#666666;cursor:default;font-size:11px;fill:#666666;width:386px;text-overflow:clip;" text-anchor="end" transform="translate(0,0)" y="423" opacity="1"><tspan>QBOBA038AV_L34799_Track69732_Track69746</tspan></text><text x="253" style="color:#666666;cursor:default;font-size:11px;fill:#666666;width:386px;text-overflow:clip;" text-anchor="end" transform="translate(0,0)" y="450" opacity="1"><tspan>QBOBA039A5_L34800_Track69735</tspan></text><text x="253" style="color:#666666;cursor:default;font-size:11px;fill:#666666;width:386px;text-overflow:clip;" text-anchor="end" transform="translate(0,0)" y="478" opacity="1"><tspan>QBOBA040A8_L34801_Track69736_Track69759</tspan></text><text x="253" style="color:#666666;cursor:default;font-size:11px;fill:#666666;width:386px;text-overflow:clip;" text-anchor="end" transform="translate(0,0)" y="506" opacity="1"><tspan>QBOBA041AG_L34802_Track69737</tspan></text><text x="253" style="color:#666666;cursor:default;font-size:11px;fill:#666666;width:386px;text-overflow:clip;" text-anchor="end" transform="translate(0,0)" y="533" opacity="1"><tspan>QBOBA042AO_L34803_Track69738</tspan></text><text x="253" style="color:#666666;cursor:default;font-size:11px;fill:#666666;width:386px;text-overflow:clip;" text-anchor="end" transform="translate(0,0)" y="561" opacity="1"><tspan>QBOBA043AW_L34804_Track69739</tspan></text><text x="253" style="color:#666666;cursor:default;font-size:11px;fill:#666666;width:386px;text-overflow:clip;" text-anchor="end" transform="translate(0,0)" y="588" opacity="1"><tspan>QBOBA044A6_L34805_Track69740</tspan></text><text x="253" style="color:#666666;cursor:default;font-size:11px;fill:#666666;width:386px;text-overflow:clip;" text-anchor="end" transform="translate(0,0)" y="616" opacity="1"><tspan>QBOBA045AE_L34806_Track69741</tspan></text><text x="253" style="color:#666666;cursor:default;font-size:11px;fill:#666666;width:386px;text-overflow:clip;" text-anchor="end" transform="translate(0,0)" y="644" opacity="1"><tspan>QBOBA046AM_L34807_Track69742</tspan></text><text x="253" style="color:#666666;cursor:default;font-size:11px;fill:#666666;width:386px;text-overflow:clip;" text-anchor="end" transform="translate(0,0)" y="671" opacity="1"><tspan>QBOBA047AU_L34808_Track69743</tspan></text><text x="253" style="color:#666666;cursor:default;font-size:11px;fill:#666666;width:386px;text-overflow:clip;" text-anchor="end" transform="translate(0,0)" y="699" opacity="1"><tspan>QBOBA048A4_L34809_Track69744</tspan></text></g><g class="highcharts-axis-labels highcharts-yaxis-labels "><text x="268" style="color:#666666;cursor:default;font-size:11px;fill:#666666;width:82px;text-overflow:clip;" text-anchor="middle" transform="translate(0,0)" y="727" opacity="1"><tspan>0</tspan></text><text x="360.2" style="color:#666666;cursor:default;font-size:11px;fill:#666666;width:82px;text-overflow:clip;" text-anchor="middle" transform="translate(0,0)" y="727" opacity="1"><tspan>10</tspan></text><text x="452.4" style="color:#666666;cursor:default;font-size:11px;fill:#666666;width:82px;text-overflow:clip;" text-anchor="middle" transform="translate(0,0)" y="727" opacity="1"><tspan>20</tspan></text><text x="544.6" style="color:#666666;cursor:default;font-size:11px;fill:#666666;width:82px;text-overflow:clip;" text-anchor="middle" transform="translate(0,0)" y="727" opacity="1"><tspan>30</tspan></text><text x="636.8" style="color:#666666;cursor:default;font-size:11px;fill:#666666;width:82px;text-overflow:clip;" text-anchor="middle" transform="translate(0,0)" y="727" opacity="1"><tspan>40</tspan></text><text x="729" style="color:#666666;cursor:default;font-size:11px;fill:#666666;width:82px;text-overflow:clip;" text-anchor="middle" transform="translate(0,0)" y="727" opacity="1"><tspan>50</tspan></text><text x="821.2" style="color:#666666;cursor:default;font-size:11px;fill:#666666;width:82px;text-overflow:clip;" text-anchor="middle" transform="translate(0,0)" y="727" opacity="1"><tspan>60</tspan></text><text x="913.4000000000001" style="color:#666666;cursor:default;font-size:11px;fill:#666666;width:82px;text-overflow:clip;" text-anchor="middle" transform="translate(0,0)" y="727" opacity="1"><tspan>70</tspan></text><text x="1005.6" style="color:#666666;cursor:default;font-size:11px;fill:#666666;width:82px;text-overflow:clip;" text-anchor="middle" transform="translate(0,0)" y="727" opacity="1"><tspan>80</tspan></text><text x="1097.8000000000002" style="color:#666666;cursor:default;font-size:11px;fill:#666666;width:82px;text-overflow:clip;" text-anchor="middle" transform="translate(0,0)" y="727" opacity="1"><tspan>90</tspan></text><text x="1181" style="color:#666666;cursor:default;font-size:11px;fill:#666666;width:82px;text-overflow:clip;" text-anchor="middle" transform="translate(0,0)" y="727" opacity="1"><tspan>100</tspan></text></g><text x="1190" class="highcharts-credits" text-anchor="end" style="cursor:pointer;color:#999999;font-size:9px;fill:#999999;" y="795"><tspan>Created with MultiQC</tspan></text></svg>