<svg xmlns:xlink="http://www.w3.org/1999/xlink" version="1.1" class="highcharts-root" style="font-family:&quot;lucida grande&quot;, &quot;lucida sans unicode&quot;, arial, helvetica, sans-serif;font-size:12px;" xmlns="http://www.w3.org/2000/svg" width="1200" height="800"><desc>Created with Highcharts 5.0.6</desc><defs><clipPath id="highcharts-1kd7a80-312"><rect x="0" y="0" width="662" height="922" fill="none"></rect></clipPath></defs><rect fill="#ffffff" class="highcharts-background" x="0" y="0" width="1200" height="800" rx="0" ry="0"></rect><rect fill="none" class="highcharts-plot-background" x="268" y="46" width="922" height="662"></rect><g class="highcharts-grid highcharts-xaxis-grid "><path fill="none" class="highcharts-grid-line" d="M 268 74.5 L 1190 74.5" opacity="1"></path><path fill="none" class="highcharts-grid-line" d="M 268 101.5 L 1190 101.5" opacity="1"></path><path fill="none" class="highcharts-grid-line" d="M 268 129.5 L 1190 129.5" opacity="1"></path><path fill="none" class="highcharts-grid-line" d="M 268 156.5 L 1190 156.5" opacity="1"></path><path fill="none" class="highcharts-grid-line" d="M 268 184.5 L 1190 184.5" opacity="1"></path><path fill="none" class="highcharts-grid-line" d="M 268 212.5 L 1190 212.5" opacity="1"></path><path fill="none" class="highcharts-grid-line" d="M 268 239.5 L 1190 239.5" opacity="1"></path><path fill="none" class="highcharts-grid-line" d="M 268 267.5 L 1190 267.5" opacity="1"></path><path fill="none" class="highcharts-grid-line" d="M 268 294.5 L 1190 294.5" opacity="1"></path><path fill="none" class="highcharts-grid-line" d="M 268 322.5 L 1190 322.5" opacity="1"></path><path fill="none" class="highcharts-grid-line" d="M 268 349.5 L 1190 349.5" opacity="1"></path><path fill="none" class="highcharts-grid-line" d="M 268 377.5 L 1190 377.5" opacity="1"></path><path fill="none" class="highcharts-grid-line" d="M 268 405.5 L 1190 405.5" opacity="1"></path><path fill="none" class="highcharts-grid-line" d="M 268 432.5 L 1190 432.5" opacity="1"></path><path fill="none" class="highcharts-grid-line" d="M 268 460.5 L 1190 460.5" opacity="1"></path><path fill="none" class="highcharts-grid-line" d="M 268 487.5 L 1190 487.5" opacity="1"></path><path fill="none" class="highcharts-grid-line" d="M 268 515.5 L 1190 515.5" opacity="1"></path><path fill="none" class="highcharts-grid-line" d="M 268 543.5 L 1190 543.5" opacity="1"></path><path fill="none" class="highcharts-grid-line" d="M 268 570.5 L 1190 570.5" opacity="1"></path><path fill="none" class="highcharts-grid-line" d="M 268 598.5 L 1190 598.5" opacity="1"></path><path fill="none" class="highcharts-grid-line" d="M 268 625.5 L 1190 625.5" opacity="1"></path><path fill="none" class="highcharts-grid-line" d="M 268 653.5 L 1190 653.5" opacity="1"></path><path fill="none" class="highcharts-grid-line" d="M 268 680.5 L 1190 680.5" opacity="1"></path><path fill="none" class="highcharts-grid-line" d="M 268 708.5 L 1190 708.5" opacity="1"></path><path fill="none" class="highcharts-grid-line" d="M 268 46.5 L 1190 46.5" opacity="1"></path></g><g class="highcharts-grid highcharts-yaxis-grid "><path fill="none" stroke="#e6e6e6" stroke-width="1" class="highcharts-grid-line" d="M 267.5 46 L 267.5 708" opacity="1"></path><path fill="none" stroke="#e6e6e6" stroke-width="1" class="highcharts-grid-line" d="M 328.5 46 L 328.5 708" opacity="1"></path><path fill="none" stroke="#e6e6e6" stroke-width="1" class="highcharts-grid-line" d="M 390.5 46 L 390.5 708" opacity="1"></path><path fill="none" stroke="#e6e6e6" stroke-width="1" class="highcharts-grid-line" d="M 451.5 46 L 451.5 708" opacity="1"></path><path fill="none" stroke="#e6e6e6" stroke-width="1" class="highcharts-grid-line" d="M 513.5 46 L 513.5 708" opacity="1"></path><path fill="none" stroke="#e6e6e6" stroke-width="1" class="highcharts-grid-line" d="M 574.5 46 L 574.5 708" opacity="1"></path><path fill="none" stroke="#e6e6e6" stroke-width="1" class="highcharts-grid-line" d="M 636.5 46 L 636.5 708" opacity="1"></path><path fill="none" stroke="#e6e6e6" stroke-width="1" class="highcharts-grid-line" d="M 697.5 46 L 697.5 708" opacity="1"></path><path fill="none" stroke="#e6e6e6" stroke-width="1" class="highcharts-grid-line" d="M 759.5 46 L 759.5 708" opacity="1"></path><path fill="none" stroke="#e6e6e6" stroke-width="1" class="highcharts-grid-line" d="M 820.5 46 L 820.5 708" opacity="1"></path><path fill="none" stroke="#e6e6e6" stroke-width="1" class="highcharts-grid-line" d="M 882.5 46 L 882.5 708" opacity="1"></path><path fill="none" stroke="#e6e6e6" stroke-width="1" class="highcharts-grid-line" d="M 943.5 46 L 943.5 708" opacity="1"></path><path fill="none" stroke="#e6e6e6" stroke-width="1" class="highcharts-grid-line" d="M 1005.5 46 L 1005.5 708" opacity="1"></path><path fill="none" stroke="#e6e6e6" stroke-width="1" class="highcharts-grid-line" d="M 1066.5 46 L 1066.5 708" opacity="1"></path><path fill="none" stroke="#e6e6e6" stroke-width="1" class="highcharts-grid-line" d="M 1128.5 46 L 1128.5 708" opacity="1"></path><path fill="none" stroke="#e6e6e6" stroke-width="1" class="highcharts-grid-line" d="M 1190.5 46 L 1190.5 708" opacity="1"></path></g><rect fill="none" class="highcharts-plot-border" x="268" y="46" width="922" height="662"></rect><g class="highcharts-axis highcharts-xaxis "><path fill="none" class="highcharts-tick" stroke="#ccd6eb" stroke-width="1" d="M 268 74.5 L 258 74.5" opacity="1"></path><path fill="none" class="highcharts-tick" stroke="#ccd6eb" stroke-width="1" d="M 268 101.5 L 258 101.5" opacity="1"></path><path fill="none" class="highcharts-tick" stroke="#ccd6eb" stroke-width="1" d="M 268 129.5 L 258 129.5" opacity="1"></path><path fill="none" class="highcharts-tick" stroke="#ccd6eb" stroke-width="1" d="M 268 156.5 L 258 156.5" opacity="1"></path><path fill="none" class="highcharts-tick" stroke="#ccd6eb" stroke-width="1" d="M 268 184.5 L 258 184.5" opacity="1"></path><path fill="none" class="highcharts-tick" stroke="#ccd6eb" stroke-width="1" d="M 268 212.5 L 258 212.5" opacity="1"></path><path fill="none" class="highcharts-tick" stroke="#ccd6eb" stroke-width="1" d="M 268 239.5 L 258 239.5" opacity="1"></path><path fill="none" class="highcharts-tick" stroke="#ccd6eb" stroke-width="1" d="M 268 267.5 L 258 267.5" opacity="1"></path><path fill="none" class="highcharts-tick" stroke="#ccd6eb" stroke-width="1" d="M 268 294.5 L 258 294.5" opacity="1"></path><path fill="none" class="highcharts-tick" stroke="#ccd6eb" stroke-width="1" d="M 268 322.5 L 258 322.5" opacity="1"></path><path fill="none" class="highcharts-tick" stroke="#ccd6eb" stroke-width="1" d="M 268 349.5 L 258 349.5" opacity="1"></path><path fill="none" class="highcharts-tick" stroke="#ccd6eb" stroke-width="1" d="M 268 377.5 L 258 377.5" opacity="1"></path><path fill="none" class="highcharts-tick" stroke="#ccd6eb" stroke-width="1" d="M 268 405.5 L 258 405.5" opacity="1"></path><path fill="none" class="highcharts-tick" stroke="#ccd6eb" stroke-width="1" d="M 268 432.5 L 258 432.5" opacity="1"></path><path fill="none" class="highcharts-tick" stroke="#ccd6eb" stroke-width="1" d="M 268 460.5 L 258 460.5" opacity="1"></path><path fill="none" class="highcharts-tick" stroke="#ccd6eb" stroke-width="1" d="M 268 487.5 L 258 487.5" opacity="1"></path><path fill="none" class="highcharts-tick" stroke="#ccd6eb" stroke-width="1" d="M 268 515.5 L 258 515.5" opacity="1"></path><path fill="none" class="highcharts-tick" stroke="#ccd6eb" stroke-width="1" d="M 268 543.5 L 258 543.5" opacity="1"></path><path fill="none" class="highcharts-tick" stroke="#ccd6eb" stroke-width="1" d="M 268 570.5 L 258 570.5" opacity="1"></path><path fill="none" class="highcharts-tick" stroke="#ccd6eb" stroke-width="1" d="M 268 598.5 L 258 598.5" opacity="1"></path><path fill="none" class="highcharts-tick" stroke="#ccd6eb" stroke-width="1" d="M 268 625.5 L 258 625.5" opacity="1"></path><path fill="none" class="highcharts-tick" stroke="#ccd6eb" stroke-width="1" d="M 268 653.5 L 258 653.5" opacity="1"></path><path fill="none" class="highcharts-tick" stroke="#ccd6eb" stroke-width="1" d="M 268 680.5 L 258 680.5" opacity="1"></path><path fill="none" class="highcharts-tick" stroke="#ccd6eb" stroke-width="1" d="M 268 708.5 L 258 708.5" opacity="1"></path><path fill="none" class="highcharts-tick" stroke="#ccd6eb" stroke-width="1" d="M 268 45.5 L 258 45.5" opacity="1"></path><path fill="none" class="highcharts-axis-line" stroke="#ccd6eb" stroke-width="1" d="M 267.5 46 L 267.5 708"></path></g><g class="highcharts-axis highcharts-yaxis "><text x="729" text-anchor="middle" transform="translate(0,0)" class="highcharts-axis-title" style="color:#666666;fill:#666666;" y="746"><tspan>Number of Reads</tspan></text><path fill="none" class="highcharts-axis-line" d="M 268 708 L 1190 708"></path></g><g class="highcharts-series-group"><g class="highcharts-series highcharts-series-0 highcharts-bar-series highcharts-color-undefined " transform="translate(1190,708) rotate(90) scale(-1,1) scale(1 1)" width="922" height="662" clip-path="url(#highcharts-1kd7a80-312)"><rect x="638" y="151" width="22" height="772" fill="#437bb1" class="highcharts-point"></rect><rect x="610" y="284" width="22" height="639" fill="#437bb1" class="highcharts-point"></rect><rect x="582" y="274" width="22" height="649" fill="#437bb1" class="highcharts-point"></rect><rect x="555" y="249" width="22" height="674" fill="#437bb1" class="highcharts-point"></rect><rect x="527" y="230" width="22" height="693" fill="#437bb1" class="highcharts-point"></rect><rect x="500" y="234" width="22" height="689" fill="#437bb1" class="highcharts-point"></rect><rect x="472" y="304" width="22" height="619" fill="#437bb1" class="highcharts-point"></rect><rect x="445" y="286" width="22" height="637" fill="#437bb1" class="highcharts-point"></rect><rect x="417" y="251" width="22" height="672" fill="#437bb1" class="highcharts-point"></rect><rect x="389" y="304" width="22" height="619" fill="#437bb1" class="highcharts-point"></rect><rect x="362" y="280" width="22" height="643" fill="#437bb1" class="highcharts-point"></rect><rect x="334" y="255" width="22" height="668" fill="#437bb1" class="highcharts-point"></rect><rect x="307" y="270" width="22" height="653" fill="#437bb1" class="highcharts-point"></rect><rect x="279" y="217" width="22" height="706" fill="#437bb1" class="highcharts-point"></rect><rect x="251" y="317" width="22" height="606" fill="#437bb1" class="highcharts-point"></rect><rect x="224" y="303" width="22" height="620" fill="#437bb1" class="highcharts-point"></rect><rect x="196" y="227" width="22" height="696" fill="#437bb1" class="highcharts-point"></rect><rect x="169" y="271" width="22" height="652" fill="#437bb1" class="highcharts-point"></rect><rect x="141" y="267" width="22" height="656" fill="#437bb1" class="highcharts-point"></rect><rect x="114" y="186" width="22" height="737" fill="#437bb1" class="highcharts-point"></rect><rect x="86" y="233" width="22" height="690" fill="#437bb1" class="highcharts-point"></rect><rect x="58" y="299" width="22" height="624" fill="#437bb1" class="highcharts-point"></rect><rect x="31" y="300" width="22" height="623" fill="#437bb1" class="highcharts-point"></rect><rect x="3" y="280" width="22" height="643" fill="#437bb1" class="highcharts-point"></rect></g><g class="highcharts-markers highcharts-series-0 highcharts-bar-series highcharts-color-undefined " transform="translate(1190,708) rotate(90) scale(-1,1) scale(1 1)" width="922" height="662" clip-path="none"></g><g class="highcharts-series highcharts-series-1 highcharts-bar-series highcharts-color-undefined " transform="translate(1190,708) rotate(90) scale(-1,1) scale(1 1)" width="922" height="662" clip-path="url(#highcharts-1kd7a80-312)"><rect x="638" y="98" width="22" height="53" fill="#7cb5ec" class="highcharts-point"></rect><rect x="610" y="234" width="22" height="50" fill="#7cb5ec" class="highcharts-point"></rect><rect x="582" y="228" width="22" height="46" fill="#7cb5ec" class="highcharts-point"></rect><rect x="555" y="197" width="22" height="52" fill="#7cb5ec" class="highcharts-point"></rect><rect x="527" y="187" width="22" height="43" fill="#7cb5ec" class="highcharts-point"></rect><rect x="500" y="190" width="22" height="44" fill="#7cb5ec" class="highcharts-point"></rect><rect x="472" y="261" width="22" height="43" fill="#7cb5ec" class="highcharts-point"></rect><rect x="445" y="241" width="22" height="45" fill="#7cb5ec" class="highcharts-point"></rect><rect x="417" y="206" width="22" height="45" fill="#7cb5ec" class="highcharts-point"></rect><rect x="389" y="262" width="22" height="42" fill="#7cb5ec" class="highcharts-point"></rect><rect x="362" y="234" width="22" height="46" fill="#7cb5ec" class="highcharts-point"></rect><rect x="334" y="204" width="22" height="51" fill="#7cb5ec" class="highcharts-point"></rect><rect x="307" y="222" width="22" height="48" fill="#7cb5ec" class="highcharts-point"></rect><rect x="279" y="161" width="22" height="56" fill="#7cb5ec" class="highcharts-point"></rect><rect x="251" y="259" width="22" height="58" fill="#7cb5ec" class="highcharts-point"></rect><rect x="224" y="248" width="22" height="55" fill="#7cb5ec" class="highcharts-point"></rect><rect x="196" y="177" width="22" height="50" fill="#7cb5ec" class="highcharts-point"></rect><rect x="169" y="223" width="22" height="48" fill="#7cb5ec" class="highcharts-point"></rect><rect x="141" y="218" width="22" height="49" fill="#7cb5ec" class="highcharts-point"></rect><rect x="114" y="131" width="22" height="55" fill="#7cb5ec" class="highcharts-point"></rect><rect x="86" y="180" width="22" height="53" fill="#7cb5ec" class="highcharts-point"></rect><rect x="58" y="253" width="22" height="46" fill="#7cb5ec" class="highcharts-point"></rect><rect x="31" y="248" width="22" height="52" fill="#7cb5ec" class="highcharts-point"></rect><rect x="3" y="230" width="22" height="50" fill="#7cb5ec" class="highcharts-point"></rect></g><g class="highcharts-markers highcharts-series-1 highcharts-bar-series highcharts-color-undefined " transform="translate(1190,708) rotate(90) scale(-1,1) scale(1 1)" width="922" height="662" clip-path="none"></g><g class="highcharts-series highcharts-series-2 highcharts-bar-series highcharts-color-undefined " transform="translate(1190,708) rotate(90) scale(-1,1) scale(1 1)" width="922" height="662" clip-path="url(#highcharts-1kd7a80-312)"><rect x="638" y="98" width="22" height="0" fill="#f7a35c" class="highcharts-point"></rect><rect x="610" y="233" width="22" height="1" fill="#f7a35c" class="highcharts-point"></rect><rect x="582" y="227" width="22" height="1" fill="#f7a35c" class="highcharts-point"></rect><rect x="555" y="196" width="22" height="1" fill="#f7a35c" class="highcharts-point"></rect><rect x="527" y="186" width="22" height="1" fill="#f7a35c" class="highcharts-point"></rect><rect x="500" y="190" width="22" height="0" fill="#f7a35c" class="highcharts-point"></rect><rect x="472" y="261" width="22" height="0" fill="#f7a35c" class="highcharts-point"></rect><rect x="445" y="241" width="22" height="0" fill="#f7a35c" class="highcharts-point"></rect><rect x="417" y="205" width="22" height="1" fill="#f7a35c" class="highcharts-point"></rect><rect x="389" y="261" width="22" height="1" fill="#f7a35c" class="highcharts-point"></rect><rect x="362" y="233" width="22" height="1" fill="#f7a35c" class="highcharts-point"></rect><rect x="334" y="204" width="22" height="0" fill="#f7a35c" class="highcharts-point"></rect><rect x="307" y="221" width="22" height="1" fill="#f7a35c" class="highcharts-point"></rect><rect x="279" y="161" width="22" height="0" fill="#f7a35c" class="highcharts-point"></rect><rect x="251" y="258" width="22" height="1" fill="#f7a35c" class="highcharts-point"></rect><rect x="224" y="248" width="22" height="0" fill="#f7a35c" class="highcharts-point"></rect><rect x="196" y="177" width="22" height="0" fill="#f7a35c" class="highcharts-point"></rect><rect x="169" y="222" width="22" height="1" fill="#f7a35c" class="highcharts-point"></rect><rect x="141" y="218" width="22" height="0" fill="#f7a35c" class="highcharts-point"></rect><rect x="114" y="130" width="22" height="1" fill="#f7a35c" class="highcharts-point"></rect><rect x="86" y="179" width="22" height="1" fill="#f7a35c" class="highcharts-point"></rect><rect x="58" y="252" width="22" height="1" fill="#f7a35c" class="highcharts-point"></rect><rect x="31" y="248" width="22" height="0" fill="#f7a35c" class="highcharts-point"></rect><rect x="3" y="229" width="22" height="1" fill="#f7a35c" class="highcharts-point"></rect></g><g class="highcharts-markers highcharts-series-2 highcharts-bar-series highcharts-color-undefined " transform="translate(1190,708) rotate(90) scale(-1,1) scale(1 1)" width="922" height="662" clip-path="none"></g><g class="highcharts-series highcharts-series-3 highcharts-bar-series highcharts-color-undefined " transform="translate(1190,708) rotate(90) scale(-1,1) scale(1 1)" width="922" height="662" clip-path="url(#highcharts-1kd7a80-312)"><rect x="638" y="94" width="22" height="4" fill="#b1084c" class="highcharts-point"></rect><rect x="610" y="230" width="22" height="3" fill="#b1084c" class="highcharts-point"></rect><rect x="582" y="224" width="22" height="3" fill="#b1084c" class="highcharts-point"></rect><rect x="555" y="193" width="22" height="3" fill="#b1084c" class="highcharts-point"></rect><rect x="527" y="183" width="22" height="3" fill="#b1084c" class="highcharts-point"></rect><rect x="500" y="186" width="22" height="4" fill="#b1084c" class="highcharts-point"></rect><rect x="472" y="258" width="22" height="3" fill="#b1084c" class="highcharts-point"></rect><rect x="445" y="238" width="22" height="3" fill="#b1084c" class="highcharts-point"></rect><rect x="417" y="202" width="22" height="3" fill="#b1084c" class="highcharts-point"></rect><rect x="389" y="258" width="22" height="3" fill="#b1084c" class="highcharts-point"></rect><rect x="362" y="230" width="22" height="3" fill="#b1084c" class="highcharts-point"></rect><rect x="334" y="201" width="22" height="3" fill="#b1084c" class="highcharts-point"></rect><rect x="307" y="218" width="22" height="3" fill="#b1084c" class="highcharts-point"></rect><rect x="279" y="157" width="22" height="4" fill="#b1084c" class="highcharts-point"></rect><rect x="251" y="256" width="22" height="2" fill="#b1084c" class="highcharts-point"></rect><rect x="224" y="245" width="22" height="3" fill="#b1084c" class="highcharts-point"></rect><rect x="196" y="174" width="22" height="3" fill="#b1084c" class="highcharts-point"></rect><rect x="169" y="220" width="22" height="2" fill="#b1084c" class="highcharts-point"></rect><rect x="141" y="215" width="22" height="3" fill="#b1084c" class="highcharts-point"></rect><rect x="114" y="127" width="22" height="3" fill="#b1084c" class="highcharts-point"></rect><rect x="86" y="176" width="22" height="3" fill="#b1084c" class="highcharts-point"></rect><rect x="58" y="248" width="22" height="4" fill="#b1084c" class="highcharts-point"></rect><rect x="31" y="245" width="22" height="3" fill="#b1084c" class="highcharts-point"></rect><rect x="3" y="226" width="22" height="3" fill="#b1084c" class="highcharts-point"></rect></g><g class="highcharts-markers highcharts-series-3 highcharts-bar-series highcharts-color-undefined " transform="translate(1190,708) rotate(90) scale(-1,1) scale(1 1)" width="922" height="662" clip-path="none"></g><g class="highcharts-series highcharts-series-4 highcharts-bar-series highcharts-color-undefined " transform="translate(1190,708) rotate(90) scale(-1,1) scale(1 1)" width="922" height="662" clip-path="url(#highcharts-1kd7a80-312)"><rect x="638" y="94" width="22" height="0" fill="#7f0000" class="highcharts-point"></rect><rect x="610" y="230" width="22" height="0" fill="#7f0000" class="highcharts-point"></rect><rect x="582" y="224" width="22" height="0" fill="#7f0000" class="highcharts-point"></rect><rect x="555" y="193" width="22" height="0" fill="#7f0000" class="highcharts-point"></rect><rect x="527" y="183" width="22" height="0" fill="#7f0000" class="highcharts-point"></rect><rect x="500" y="186" width="22" height="0" fill="#7f0000" class="highcharts-point"></rect><rect x="472" y="258" width="22" height="0" fill="#7f0000" class="highcharts-point"></rect><rect x="445" y="238" width="22" height="0" fill="#7f0000" class="highcharts-point"></rect><rect x="417" y="202" width="22" height="0" fill="#7f0000" class="highcharts-point"></rect><rect x="389" y="258" width="22" height="0" fill="#7f0000" class="highcharts-point"></rect><rect x="362" y="230" width="22" height="0" fill="#7f0000" class="highcharts-point"></rect><rect x="334" y="201" width="22" height="0" fill="#7f0000" class="highcharts-point"></rect><rect x="307" y="218" width="22" height="0" fill="#7f0000" class="highcharts-point"></rect><rect x="279" y="157" width="22" height="0" fill="#7f0000" class="highcharts-point"></rect><rect x="251" y="255" width="22" height="1" fill="#7f0000" class="highcharts-point"></rect><rect x="224" y="244" width="22" height="1" fill="#7f0000" class="highcharts-point"></rect><rect x="196" y="174" width="22" height="0" fill="#7f0000" class="highcharts-point"></rect><rect x="169" y="219" width="22" height="1" fill="#7f0000" class="highcharts-point"></rect><rect x="141" y="215" width="22" height="0" fill="#7f0000" class="highcharts-point"></rect><rect x="114" y="127" width="22" height="0" fill="#7f0000" class="highcharts-point"></rect><rect x="86" y="176" width="22" height="0" fill="#7f0000" class="highcharts-point"></rect><rect x="58" y="248" width="22" height="0" fill="#7f0000" class="highcharts-point"></rect><rect x="31" y="245" width="22" height="0" fill="#7f0000" class="highcharts-point"></rect><rect x="3" y="225" width="22" height="1" fill="#7f0000" class="highcharts-point"></rect></g><g class="highcharts-markers highcharts-series-4 highcharts-bar-series highcharts-color-undefined " transform="translate(1190,708) rotate(90) scale(-1,1) scale(1 1)" width="922" height="662" clip-path="none"></g></g><text x="600" text-anchor="middle" class="highcharts-title" style="color:#333333;font-size:18px;fill:#333333;width:1136px;" y="24"><tspan>STAR: Alignment Scores</tspan></text><g class="highcharts-legend" transform="translate(207,760)"><rect fill="none" class="highcharts-legend-box" rx="0" ry="0" x="0" y="0" width="787" height="25" visibility="visible"></rect><g><g><g class="highcharts-legend-item highcharts-bar-series highcharts-color-undefined highcharts-series-0" transform="translate(8,3)"><text x="21" style="color:#333333;font-size:12px;font-weight:bold;cursor:pointer;fill:#333333;" text-anchor="start" y="15"><tspan>Uniquely mapped</tspan></text><rect x="2" y="4" width="12" height="12" fill="#437bb1" rx="6" ry="6" class="highcharts-point"></rect></g><g class="highcharts-legend-item highcharts-bar-series highcharts-color-undefined highcharts-series-1" transform="translate(148,3)"><text x="21" y="15" style="color:#333333;font-size:12px;font-weight:bold;cursor:pointer;fill:#333333;" text-anchor="start"><tspan>Mapped to multiple loci</tspan></text><rect x="2" y="4" width="12" height="12" fill="#7cb5ec" rx="6" ry="6" class="highcharts-point"></rect></g><g class="highcharts-legend-item highcharts-bar-series highcharts-color-undefined highcharts-series-2" transform="translate(319,3)"><text x="21" y="15" style="color:#333333;font-size:12px;font-weight:bold;cursor:pointer;fill:#333333;" text-anchor="start"><tspan>Mapped to too many loci</tspan></text><rect x="2" y="4" width="12" height="12" fill="#f7a35c" rx="6" ry="6" class="highcharts-point"></rect></g><g class="highcharts-legend-item highcharts-bar-series highcharts-color-undefined highcharts-series-3" transform="translate(498,3)"><text x="21" y="15" style="color:#333333;font-size:12px;font-weight:bold;cursor:pointer;fill:#333333;" text-anchor="start"><tspan>Unmapped: too short</tspan></text><rect x="2" y="4" width="12" height="12" fill="#b1084c" rx="6" ry="6" class="highcharts-point"></rect></g><g class="highcharts-legend-item highcharts-bar-series highcharts-color-undefined highcharts-series-4" transform="translate(659,3)"><text x="21" y="15" style="color:#333333;font-size:12px;font-weight:bold;cursor:pointer;fill:#333333;" text-anchor="start"><tspan>Unmapped: other</tspan></text><rect x="2" y="4" width="12" height="12" fill="#7f0000" rx="6" ry="6" class="highcharts-point"></rect></g></g></g></g><g class="highcharts-axis-labels highcharts-xaxis-labels "><text x="253" style="color:#666666;cursor:default;font-size:11px;fill:#666666;width:386px;text-overflow:clip;" text-anchor="end" transform="translate(0,0)" y="64" opacity="1"><tspan>QBOBA025A0_L34786_Track69719</tspan></text><text x="253" style="color:#666666;cursor:default;font-size:11px;fill:#666666;width:386px;text-overflow:clip;" text-anchor="end" transform="translate(0,0)" y="92" opacity="1"><tspan>QBOBA026A8_L34787_Track69720</tspan></text><text x="253" style="color:#666666;cursor:default;font-size:11px;fill:#666666;width:386px;text-overflow:clip;" text-anchor="end" transform="translate(0,0)" y="119" opacity="1"><tspan>QBOBA027AG_L34788_Track69721</tspan></text><text x="253" style="color:#666666;cursor:default;font-size:11px;fill:#666666;width:386px;text-overflow:clip;" text-anchor="end" transform="translate(0,0)" y="147" opacity="1"><tspan>QBOBA028AO_L34789_Track69722</tspan></text><text x="253" style="color:#666666;cursor:default;font-size:11px;fill:#666666;width:386px;text-overflow:clip;" text-anchor="end" transform="translate(0,0)" y="175" opacity="1"><tspan>QBOBA029AW_L34790_Track69723</tspan></text><text x="253" style="color:#666666;cursor:default;font-size:11px;fill:#666666;width:386px;text-overflow:clip;" text-anchor="end" transform="translate(0,0)" y="202" opacity="1"><tspan>QBOBA030A1_L34791_Track69724</tspan></text><text x="253" style="color:#666666;cursor:default;font-size:11px;fill:#666666;width:386px;text-overflow:clip;" text-anchor="end" transform="translate(0,0)" y="230" opacity="1"><tspan>QBOBA031A9_L34792_Track69725</tspan></text><text x="253" style="color:#666666;cursor:default;font-size:11px;fill:#666666;width:386px;text-overflow:clip;" text-anchor="end" transform="translate(0,0)" y="257" opacity="1"><tspan>QBOBA032AH_L34793_Track69726</tspan></text><text x="253" style="color:#666666;cursor:default;font-size:11px;fill:#666666;width:386px;text-overflow:clip;" text-anchor="end" transform="translate(0,0)" y="285" opacity="1"><tspan>QBOBA033AP_L34794_Track69727_Track69745</tspan></text><text x="253" style="color:#666666;cursor:default;font-size:11px;fill:#666666;width:386px;text-overflow:clip;" text-anchor="end" transform="translate(0,0)" y="313" opacity="1"><tspan>QBOBA034AX_L34795_Track69728</tspan></text><text x="253" style="color:#666666;cursor:default;font-size:11px;fill:#666666;width:386px;text-overflow:clip;" text-anchor="end" transform="translate(0,0)" y="340" opacity="1"><tspan>QBOBA035A7_L34796_Track69729</tspan></text><text x="253" style="color:#666666;cursor:default;font-size:11px;fill:#666666;width:386px;text-overflow:clip;" text-anchor="end" transform="translate(0,0)" y="368" opacity="1"><tspan>QBOBA036AF_L34797_Track69730</tspan></text><text x="253" style="color:#666666;cursor:default;font-size:11px;fill:#666666;width:386px;text-overflow:clip;" text-anchor="end" transform="translate(0,0)" y="395" opacity="1"><tspan>QBOBA037AN_L34798_Track69731</tspan></text><text x="253" style="color:#666666;cursor:default;font-size:11px;fill:#666666;width:386px;text-overflow:clip;" text-anchor="end" transform="translate(0,0)" y="423" opacity="1"><tspan>QBOBA038AV_L34799_Track69732_Track69746</tspan></text><text x="253" style="color:#666666;cursor:default;font-size:11px;fill:#666666;width:386px;text-overflow:clip;" text-anchor="end" transform="translate(0,0)" y="450" opacity="1"><tspan>QBOBA039A5_L34800_Track69735</tspan></text><text x="253" style="color:#666666;cursor:default;font-size:11px;fill:#666666;width:386px;text-overflow:clip;" text-anchor="end" transform="translate(0,0)" y="478" opacity="1"><tspan>QBOBA040A8_L34801_Track69736_Track69759</tspan></text><text x="253" style="color:#666666;cursor:default;font-size:11px;fill:#666666;width:386px;text-overflow:clip;" text-anchor="end" transform="translate(0,0)" y="506" opacity="1"><tspan>QBOBA041AG_L34802_Track69737</tspan></text><text x="253" style="color:#666666;cursor:default;font-size:11px;fill:#666666;width:386px;text-overflow:clip;" text-anchor="end" transform="translate(0,0)" y="533" opacity="1"><tspan>QBOBA042AO_L34803_Track69738</tspan></text><text x="253" style="color:#666666;cursor:default;font-size:11px;fill:#666666;width:386px;text-overflow:clip;" text-anchor="end" transform="translate(0,0)" y="561" opacity="1"><tspan>QBOBA043AW_L34804_Track69739</tspan></text><text x="253" style="color:#666666;cursor:default;font-size:11px;fill:#666666;width:386px;text-overflow:clip;" text-anchor="end" transform="translate(0,0)" y="588" opacity="1"><tspan>QBOBA044A6_L34805_Track69740</tspan></text><text x="253" style="color:#666666;cursor:default;font-size:11px;fill:#666666;width:386px;text-overflow:clip;" text-anchor="end" transform="translate(0,0)" y="616" opacity="1"><tspan>QBOBA045AE_L34806_Track69741</tspan></text><text x="253" style="color:#666666;cursor:default;font-size:11px;fill:#666666;width:386px;text-overflow:clip;" text-anchor="end" transform="translate(0,0)" y="644" opacity="1"><tspan>QBOBA046AM_L34807_Track69742</tspan></text><text x="253" style="color:#666666;cursor:default;font-size:11px;fill:#666666;width:386px;text-overflow:clip;" text-anchor="end" transform="translate(0,0)" y="671" opacity="1"><tspan>QBOBA047AU_L34808_Track69743</tspan></text><text x="253" style="color:#666666;cursor:default;font-size:11px;fill:#666666;width:386px;text-overflow:clip;" text-anchor="end" transform="translate(0,0)" y="699" opacity="1"><tspan>QBOBA048A4_L34809_Track69744</tspan></text></g><g class="highcharts-axis-labels highcharts-yaxis-labels "><text x="268" style="color:#666666;cursor:default;font-size:11px;fill:#666666;" text-anchor="middle" transform="translate(0,0)" y="727" opacity="1">0</text><text x="513.8666666666667" style="color:#666666;cursor:default;font-size:11px;fill:#666666;" text-anchor="middle" transform="translate(0,0)" y="727" opacity="1">10M</text><text x="759.7333333333333" style="color:#666666;cursor:default;font-size:11px;fill:#666666;" text-anchor="middle" transform="translate(0,0)" y="727" opacity="1">20M</text><text x="1005.6" style="color:#666666;cursor:default;font-size:11px;fill:#666666;" text-anchor="middle" transform="translate(0,0)" y="727" opacity="1">30M</text><text x="329.4666666666667" style="color:#666666;cursor:default;font-size:11px;fill:#666666;" text-anchor="middle" transform="translate(0,0)" y="727" opacity="1">2.5M</text><text x="390.93333333333334" style="color:#666666;cursor:default;font-size:11px;fill:#666666;" text-anchor="middle" transform="translate(0,0)" y="727" opacity="1">5M</text><text x="452.4" style="color:#666666;cursor:default;font-size:11px;fill:#666666;" text-anchor="middle" transform="translate(0,0)" y="727" opacity="1">7.5M</text><text x="575.3333333333333" style="color:#666666;cursor:default;font-size:11px;fill:#666666;" text-anchor="middle" transform="translate(0,0)" y="727" opacity="1">12.5M</text><text x="636.8" style="color:#666666;cursor:default;font-size:11px;fill:#666666;" text-anchor="middle" transform="translate(0,0)" y="727" opacity="1">15M</text><text x="698.2666666666667" style="color:#666666;cursor:default;font-size:11px;fill:#666666;" text-anchor="middle" transform="translate(0,0)" y="727" opacity="1">17.5M</text><text x="821.2" style="color:#666666;cursor:default;font-size:11px;fill:#666666;" text-anchor="middle" transform="translate(0,0)" y="727" opacity="1">22.5M</text><text x="882.6666666666666" style="color:#666666;cursor:default;font-size:11px;fill:#666666;" text-anchor="middle" transform="translate(0,0)" y="727" opacity="1">25M</text><text x="944.1333333333333" style="color:#666666;cursor:default;font-size:11px;fill:#666666;" text-anchor="middle" transform="translate(0,0)" y="727" opacity="1">27.5M</text><text x="1067.0666666666666" style="color:#666666;cursor:default;font-size:11px;fill:#666666;" text-anchor="middle" transform="translate(0,0)" y="727" opacity="1">32.5M</text><text x="1128.5333333333333" style="color:#666666;cursor:default;font-size:11px;fill:#666666;" text-anchor="middle" transform="translate(0,0)" y="727" opacity="1">35M</text><text x="1175" style="color:#666666;cursor:default;font-size:11px;fill:#666666;" text-anchor="middle" transform="translate(0,0)" y="727" opacity="1">37.5M</text></g><text x="1190" class="highcharts-credits" text-anchor="end" style="cursor:pointer;color:#999999;font-size:9px;fill:#999999;" y="795"><tspan>Created with MultiQC</tspan></text></svg>